<svg width="603" height="585" viewBox="0 0 603 585" fill="none" xmlns="http://www.w3.org/2000/svg">
<path d="M570.853 367.884C570.493 350.838 571.521 321.767 559.912 309.798C549.713 299.289 541.783 313.551 538.921 325.057C531.987 352.967 535.242 383.743 535.263 412.554C535.263 412.99 535.263 413.427 535.263 413.918C534.722 435.127 532.74 458.069 534.542 479.237C534.542 479.237 532.772 458.029 519.838 467.118C506.903 476.208 526.305 523.907 526.305 523.907C526.305 523.907 511.017 509.522 503.956 521.642C496.895 533.761 512.777 547.382 512.777 547.382C512.777 547.382 498.072 542.086 498.072 547.382C498.072 552.677 502.779 557.222 516.307 559.501H589.226C589.226 559.501 600.994 551.162 598.64 542.086C596.287 533.01 583.925 538.237 583.925 538.237C583.925 538.237 602.754 508.703 601.577 495.833C600.4 482.963 576.281 498.113 576.281 498.113C576.281 498.113 595.099 436.779 591.569 409.524C588.791 388.055 575.846 402.7 568.796 410.998C570.456 396.731 571.144 382.305 570.853 367.884Z" fill="#92E3A9" stroke="white" stroke-linecap="round" stroke-linejoin="round"/>
<path opacity="0.5" d="M570.853 367.884C570.493 350.838 571.521 321.767 559.912 309.798C549.713 299.289 541.783 313.551 538.921 325.057C531.987 352.967 535.242 383.743 535.263 412.554C535.263 412.99 535.263 413.427 535.263 413.918C534.722 435.127 532.74 458.069 534.542 479.237C534.542 479.237 532.772 458.029 519.838 467.118C506.903 476.208 526.305 523.907 526.305 523.907C526.305 523.907 511.017 509.522 503.956 521.642C496.895 533.761 512.777 547.382 512.777 547.382C512.777 547.382 498.072 542.086 498.072 547.382C498.072 552.677 502.779 557.222 516.307 559.501H589.226C589.226 559.501 600.994 551.162 598.64 542.086C596.287 533.01 583.925 538.237 583.925 538.237C583.925 538.237 602.754 508.703 601.577 495.833C600.4 482.963 576.281 498.113 576.281 498.113C576.281 498.113 595.099 436.779 591.569 409.524C588.791 388.055 575.846 402.7 568.796 410.998C570.456 396.731 571.144 382.305 570.853 367.884Z" fill="white"/>
<path d="M547.455 558.682L552.756 350.455" stroke="white" stroke-linecap="round" stroke-linejoin="round"/>
<path d="M550.402 471.608L578.041 438.293" stroke="white" stroke-linecap="round" stroke-linejoin="round"/>
<path d="M563.336 456.459L569.22 435.264" stroke="white" stroke-linecap="round" stroke-linejoin="round"/>
<path d="M527.46 497.348L548.632 526.882" stroke="white" stroke-linecap="round" stroke-linejoin="round"/>
<path d="M583.925 514.012L548.632 537.487" stroke="white" stroke-linecap="round" stroke-linejoin="round"/>
<path d="M565.107 527.633L578.041 526.882" stroke="white" stroke-linecap="round" stroke-linejoin="round"/>
<path d="M547.455 558.682L552.756 350.455" stroke="#92E3A9" stroke-linecap="round" stroke-linejoin="round"/>
<path d="M550.402 471.608L578.041 438.293" stroke="#92E3A9" stroke-linecap="round" stroke-linejoin="round"/>
<path d="M563.336 456.459L569.22 435.264" stroke="#92E3A9" stroke-linecap="round" stroke-linejoin="round"/>
<path d="M527.46 497.348L548.632 526.882" stroke="#92E3A9" stroke-linecap="round" stroke-linejoin="round"/>
<path d="M583.925 514.012L548.632 537.487" stroke="#92E3A9" stroke-linecap="round" stroke-linejoin="round"/>
<path d="M565.107 527.633L578.041 526.882" stroke="#92E3A9" stroke-linecap="round" stroke-linejoin="round"/>
<g opacity="0.8">
<path opacity="0.8" d="M547.455 558.682L552.756 350.455" stroke="white" stroke-linecap="round" stroke-linejoin="round"/>
<path opacity="0.8" d="M550.402 471.608L578.041 438.294" stroke="white" stroke-linecap="round" stroke-linejoin="round"/>
<path opacity="0.8" d="M563.336 456.459L569.22 435.264" stroke="white" stroke-linecap="round" stroke-linejoin="round"/>
<path opacity="0.8" d="M527.46 497.348L548.632 526.882" stroke="white" stroke-linecap="round" stroke-linejoin="round"/>
<path opacity="0.8" d="M583.925 514.012L548.632 537.487" stroke="white" stroke-linecap="round" stroke-linejoin="round"/>
<path opacity="0.8" d="M565.107 527.633L578.041 526.883" stroke="white" stroke-linecap="round" stroke-linejoin="round"/>
</g>
<path d="M446.421 516.606C446.421 537.774 459.45 554.943 459.45 554.943C459.45 554.943 472.48 537.774 472.48 516.606C472.48 495.438 459.45 478.269 459.45 478.269C459.45 478.269 446.421 495.424 446.421 516.606Z" fill="#92E3A9"/>
<path d="M437.388 549.265C443.749 558.45 454.499 559.446 454.499 559.446C454.499 559.446 455.019 545.539 448.7 536.354C442.381 527.169 431.589 526.173 431.589 526.173C431.589 526.173 431.059 540.08 437.388 549.265Z" fill="#92E3A9"/>
<path d="M470.593 536.04C463.945 544.843 463.988 558.764 463.988 558.764C463.988 558.764 474.791 558.395 481.428 549.579C488.064 540.762 488.043 526.855 488.043 526.855C488.043 526.855 477.229 527.223 470.593 536.04Z" fill="#92E3A9"/>
<g opacity="0.5">
<path opacity="0.5" d="M446.421 516.605C446.421 537.773 459.45 554.942 459.45 554.942C459.45 554.942 472.48 537.773 472.48 516.605C472.48 495.437 459.45 478.268 459.45 478.268C459.45 478.268 446.421 495.424 446.421 516.605Z" fill="white"/>
<path opacity="0.5" d="M459.45 554.942V478.268" stroke="white" stroke-linecap="round" stroke-linejoin="round"/>
<path opacity="0.5" d="M459.45 505.523L452.156 497.321" stroke="white" stroke-linecap="round" stroke-linejoin="round"/>
<path opacity="0.5" d="M459.567 518.188L468.599 501.347" stroke="white" stroke-linecap="round" stroke-linejoin="round"/>
<path opacity="0.5" d="M459.45 525.49L448.679 513.125" stroke="white" stroke-linecap="round" stroke-linejoin="round"/>
<path opacity="0.5" d="M459.567 535.33L470.221 523.115" stroke="white" stroke-linecap="round" stroke-linejoin="round"/>
<path opacity="0.5" d="M459.567 543.833L451.223 535.33" stroke="white" stroke-linecap="round" stroke-linejoin="round"/>
<path opacity="0.5" d="M437.388 549.265C443.749 558.45 454.499 559.446 454.499 559.446C454.499 559.446 455.019 545.539 448.7 536.354C442.381 527.169 431.589 526.173 431.589 526.173C431.589 526.173 431.059 540.08 437.388 549.265Z" fill="white"/>
<path opacity="0.5" d="M454.499 559.446L431.589 526.173" stroke="white" stroke-linecap="round" stroke-linejoin="round"/>
<path opacity="0.5" d="M439.731 538.005L434.112 538.059" stroke="white" stroke-linecap="round" stroke-linejoin="round"/>
<path opacity="0.5" d="M443.569 543.437L442.456 531.659" stroke="white" stroke-linecap="round" stroke-linejoin="round"/>
<path opacity="0.5" d="M445.7 546.672L437.335 546.631" stroke="white" stroke-linecap="round" stroke-linejoin="round"/>
<path opacity="0.5" d="M448.689 550.875L449.654 540.298" stroke="white" stroke-linecap="round" stroke-linejoin="round"/>
<path opacity="0.5" d="M451.234 554.56L445.074 555.011" stroke="white" stroke-linecap="round" stroke-linejoin="round"/>
<path opacity="0.5" d="M470.592 536.04C463.945 544.843 463.988 558.764 463.988 558.764C463.988 558.764 474.791 558.395 481.427 549.579C488.064 540.762 488.043 526.855 488.043 526.855C488.043 526.855 477.229 527.223 470.592 536.04Z" fill="white"/>
<path opacity="0.5" d="M463.988 558.764L488.043 526.855" stroke="white" stroke-linecap="round" stroke-linejoin="round"/>
<path opacity="0.5" d="M479.487 538.196L479.031 530.99" stroke="white" stroke-linecap="round" stroke-linejoin="round"/>
<path opacity="0.5" d="M475.565 543.533L484.608 541.212" stroke="white" stroke-linecap="round" stroke-linejoin="round"/>
<path opacity="0.5" d="M473.222 546.508L472.628 535.767" stroke="white" stroke-linecap="round" stroke-linejoin="round"/>
<path opacity="0.5" d="M470.179 550.657L478.448 551.121" stroke="white" stroke-linecap="round" stroke-linejoin="round"/>
<path opacity="0.5" d="M467.518 554.192L466.712 546.331" stroke="white" stroke-linecap="round" stroke-linejoin="round"/>
</g>
<path d="M459.45 554.943V478.269" stroke="#92E3A9" stroke-linecap="round" stroke-linejoin="round"/>
<path d="M459.45 505.523L452.156 497.321" stroke="#92E3A9" stroke-linecap="round" stroke-linejoin="round"/>
<path d="M459.567 518.189L468.599 501.347" stroke="#92E3A9" stroke-linecap="round" stroke-linejoin="round"/>
<path d="M459.45 525.49L448.679 513.125" stroke="#92E3A9" stroke-linecap="round" stroke-linejoin="round"/>
<path d="M459.567 535.331L470.221 523.116" stroke="#92E3A9" stroke-linecap="round" stroke-linejoin="round"/>
<path d="M459.567 543.833L451.223 535.331" stroke="#92E3A9" stroke-linecap="round" stroke-linejoin="round"/>
<g opacity="0.7">
<path opacity="0.7" d="M459.45 554.942V478.268" stroke="white" stroke-linecap="round" stroke-linejoin="round"/>
<path opacity="0.7" d="M459.45 505.523L452.156 497.321" stroke="white" stroke-linecap="round" stroke-linejoin="round"/>
<path opacity="0.7" d="M459.567 518.188L468.599 501.347" stroke="white" stroke-linecap="round" stroke-linejoin="round"/>
<path opacity="0.7" d="M459.45 525.49L448.679 513.125" stroke="white" stroke-linecap="round" stroke-linejoin="round"/>
<path opacity="0.7" d="M459.567 535.33L470.221 523.115" stroke="white" stroke-linecap="round" stroke-linejoin="round"/>
<path opacity="0.7" d="M459.567 543.833L451.223 535.33" stroke="white" stroke-linecap="round" stroke-linejoin="round"/>
</g>
<path d="M454.499 559.446L431.589 526.173" stroke="#92E3A9" stroke-linecap="round" stroke-linejoin="round"/>
<path d="M439.731 538.005L434.112 538.059" stroke="#92E3A9" stroke-linecap="round" stroke-linejoin="round"/>
<path d="M443.569 543.437L442.456 531.659" stroke="#92E3A9" stroke-linecap="round" stroke-linejoin="round"/>
<path d="M445.7 546.672L437.335 546.631" stroke="#92E3A9" stroke-linecap="round" stroke-linejoin="round"/>
<path d="M448.689 550.875L449.654 540.299" stroke="#92E3A9" stroke-linecap="round" stroke-linejoin="round"/>
<path d="M451.234 554.56L445.074 555.011" stroke="#92E3A9" stroke-linecap="round" stroke-linejoin="round"/>
<g opacity="0.7">
<path opacity="0.7" d="M454.499 559.446L431.589 526.173" stroke="white" stroke-linecap="round" stroke-linejoin="round"/>
<path opacity="0.7" d="M439.731 538.005L434.112 538.059" stroke="white" stroke-linecap="round" stroke-linejoin="round"/>
<path opacity="0.7" d="M443.569 543.437L442.456 531.659" stroke="white" stroke-linecap="round" stroke-linejoin="round"/>
<path opacity="0.7" d="M445.7 546.672L437.335 546.631" stroke="white" stroke-linecap="round" stroke-linejoin="round"/>
<path opacity="0.7" d="M448.689 550.875L449.654 540.298" stroke="white" stroke-linecap="round" stroke-linejoin="round"/>
<path opacity="0.7" d="M451.234 554.56L445.074 555.011" stroke="white" stroke-linecap="round" stroke-linejoin="round"/>
</g>
<path d="M463.988 558.764L488.043 526.855" stroke="#92E3A9" stroke-linecap="round" stroke-linejoin="round"/>
<path d="M479.487 538.197L479.031 530.99" stroke="#92E3A9" stroke-linecap="round" stroke-linejoin="round"/>
<path d="M475.565 543.533L484.608 541.213" stroke="#92E3A9" stroke-linecap="round" stroke-linejoin="round"/>
<path d="M473.222 546.508L472.628 535.767" stroke="#92E3A9" stroke-linecap="round" stroke-linejoin="round"/>
<path d="M470.179 550.657L478.448 551.121" stroke="#92E3A9" stroke-linecap="round" stroke-linejoin="round"/>
<path d="M467.518 554.192L466.712 546.331" stroke="#92E3A9" stroke-linecap="round" stroke-linejoin="round"/>
<g opacity="0.7">
<path opacity="0.7" d="M463.988 558.764L488.043 526.855" stroke="white" stroke-linecap="round" stroke-linejoin="round"/>
<path opacity="0.7" d="M479.487 538.197L479.031 530.99" stroke="white" stroke-linecap="round" stroke-linejoin="round"/>
<path opacity="0.7" d="M475.565 543.533L484.608 541.212" stroke="white" stroke-linecap="round" stroke-linejoin="round"/>
<path opacity="0.7" d="M473.222 546.508L472.628 535.767" stroke="white" stroke-linecap="round" stroke-linejoin="round"/>
<path opacity="0.7" d="M470.179 550.657L478.448 551.121" stroke="white" stroke-linecap="round" stroke-linejoin="round"/>
<path opacity="0.7" d="M467.518 554.192L466.712 546.33" stroke="white" stroke-linecap="round" stroke-linejoin="round"/>
</g>
<path d="M31.7768 367.884C32.1266 350.838 31.1089 321.768 42.7177 309.798C52.9166 299.289 60.8467 313.552 63.6985 325.057C70.6427 352.967 67.3773 383.743 67.3667 412.554C67.3667 412.99 67.3667 413.427 67.3667 413.919C67.918 435.127 69.8899 458.07 68.0983 479.238C68.0983 479.238 69.8581 458.029 82.8028 467.118C95.7476 476.208 76.3252 523.907 76.3252 523.907C76.3252 523.907 91.6235 509.522 98.6842 521.642C105.745 533.761 89.8848 547.327 89.8848 547.327C89.8848 547.327 104.589 542.032 104.589 547.327C104.589 552.623 99.8822 557.167 86.3544 559.447H13.404C13.404 559.447 1.63608 551.108 3.98966 542.032C6.34324 532.956 18.6942 538.238 18.6942 538.238C18.6942 538.238 -0.123812 508.703 1.05298 495.833C2.22977 482.963 26.3487 498.113 26.3487 498.113C26.3487 498.113 7.52003 436.779 11.0504 409.565C13.8281 388.097 26.7834 402.741 33.8229 411.039C32.165 396.758 31.4804 382.318 31.7768 367.884Z" fill="#92E3A9" stroke="white" stroke-linecap="round" stroke-linejoin="round"/>
<path opacity="0.5" d="M31.7768 367.884C32.1266 350.838 31.1089 321.768 42.7177 309.798C52.9166 299.289 60.8467 313.552 63.6985 325.057C70.6427 352.967 67.3773 383.743 67.3667 412.554C67.3667 412.99 67.3667 413.427 67.3667 413.919C67.918 435.127 69.8899 458.07 68.0983 479.238C68.0983 479.238 69.8581 458.029 82.8028 467.118C95.7476 476.208 76.3252 523.907 76.3252 523.907C76.3252 523.907 91.6235 509.522 98.6842 521.642C105.745 533.761 89.8848 547.327 89.8848 547.327C89.8848 547.327 104.589 542.032 104.589 547.327C104.589 552.623 99.8822 557.167 86.3544 559.447H13.404C13.404 559.447 1.63608 551.108 3.98966 542.032C6.34324 532.956 18.6942 538.238 18.6942 538.238C18.6942 538.238 -0.123812 508.703 1.05298 495.833C2.22977 482.963 26.3487 498.113 26.3487 498.113C26.3487 498.113 7.52003 436.779 11.0504 409.565C13.8281 388.097 26.7834 402.741 33.8229 411.039C32.165 396.758 31.4804 382.318 31.7768 367.884Z" fill="white"/>
<path d="M55.1642 558.682L49.8739 350.455" stroke="white" stroke-linecap="round" stroke-linejoin="round"/>
<path d="M52.2275 471.608L24.5782 438.293" stroke="white" stroke-linecap="round" stroke-linejoin="round"/>
<path d="M39.2828 456.459L33.3988 435.264" stroke="white" stroke-linecap="round" stroke-linejoin="round"/>
<path d="M75.159 497.348L53.9874 526.882" stroke="white" stroke-linecap="round" stroke-linejoin="round"/>
<path d="M18.6942 514.012L53.9874 537.487" stroke="white" stroke-linecap="round" stroke-linejoin="round"/>
<path d="M37.5229 527.633L24.5782 526.882" stroke="white" stroke-linecap="round" stroke-linejoin="round"/>
<path d="M55.1642 558.682L49.8739 350.455" stroke="#92E3A9" stroke-linecap="round" stroke-linejoin="round"/>
<path d="M52.2275 471.608L24.5782 438.293" stroke="#92E3A9" stroke-linecap="round" stroke-linejoin="round"/>
<path d="M39.2828 456.459L33.3988 435.264" stroke="#92E3A9" stroke-linecap="round" stroke-linejoin="round"/>
<path d="M75.159 497.348L53.9874 526.882" stroke="#92E3A9" stroke-linecap="round" stroke-linejoin="round"/>
<path d="M18.6942 514.012L53.9874 537.487" stroke="#92E3A9" stroke-linecap="round" stroke-linejoin="round"/>
<path d="M37.5229 527.633L24.5782 526.882" stroke="#92E3A9" stroke-linecap="round" stroke-linejoin="round"/>
<g opacity="0.8">
<path opacity="0.8" d="M55.1642 558.682L49.8739 350.455" stroke="white" stroke-linecap="round" stroke-linejoin="round"/>
<path opacity="0.8" d="M52.2275 471.608L24.5782 438.294" stroke="white" stroke-linecap="round" stroke-linejoin="round"/>
<path opacity="0.8" d="M39.2828 456.459L33.3988 435.264" stroke="white" stroke-linecap="round" stroke-linejoin="round"/>
<path opacity="0.8" d="M75.159 497.348L53.9874 526.882" stroke="white" stroke-linecap="round" stroke-linejoin="round"/>
<path opacity="0.8" d="M18.6942 514.012L53.9874 537.487" stroke="white" stroke-linecap="round" stroke-linejoin="round"/>
<path opacity="0.8" d="M37.5229 527.633L24.5782 526.883" stroke="white" stroke-linecap="round" stroke-linejoin="round"/>
</g>
<path d="M158.329 516.606C158.329 537.774 145.3 554.943 145.3 554.943C145.3 554.943 132.292 537.774 132.292 516.606C132.292 495.438 145.321 478.269 145.321 478.269C145.321 478.269 158.329 495.424 158.329 516.606Z" fill="#92E3A9"/>
<path d="M167.352 549.265C160.991 558.45 150.24 559.446 150.24 559.446C150.24 559.446 149.721 545.539 156.05 536.354C162.379 527.169 173.161 526.173 173.161 526.173C173.161 526.173 173.638 540.08 167.352 549.265Z" fill="#92E3A9"/>
<path d="M134.158 536.04C140.794 544.843 140.762 558.764 140.762 558.764C140.762 558.764 129.959 558.395 123.312 549.579C116.665 540.762 116.707 526.855 116.707 526.855C116.707 526.855 127.51 527.223 134.158 536.04Z" fill="#92E3A9"/>
<g opacity="0.5">
<path opacity="0.5" d="M158.329 516.605C158.329 537.773 145.3 554.942 145.3 554.942C145.3 554.942 132.292 537.773 132.292 516.605C132.292 495.437 145.321 478.268 145.321 478.268C145.321 478.268 158.329 495.424 158.329 516.605Z" fill="white"/>
<path opacity="0.5" d="M145.3 554.942V478.268" stroke="white" stroke-linecap="round" stroke-linejoin="round"/>
<path opacity="0.5" d="M145.3 505.523L152.594 497.321" stroke="white" stroke-linecap="round" stroke-linejoin="round"/>
<path opacity="0.5" d="M145.183 518.188L136.151 501.347" stroke="white" stroke-linecap="round" stroke-linejoin="round"/>
<path opacity="0.5" d="M145.3 525.49L156.071 513.125" stroke="white" stroke-linecap="round" stroke-linejoin="round"/>
<path opacity="0.5" d="M145.183 535.33L134.529 523.115" stroke="white" stroke-linecap="round" stroke-linejoin="round"/>
<path opacity="0.5" d="M145.183 543.833L153.516 535.33" stroke="white" stroke-linecap="round" stroke-linejoin="round"/>
<path opacity="0.5" d="M167.352 549.265C160.991 558.45 150.24 559.446 150.24 559.446C150.24 559.446 149.721 545.539 156.05 536.354C162.379 527.169 173.161 526.173 173.161 526.173C173.161 526.173 173.638 540.08 167.352 549.265Z" fill="white"/>
<path opacity="0.5" d="M150.24 559.446L173.161 526.173" stroke="white" stroke-linecap="round" stroke-linejoin="round"/>
<path opacity="0.5" d="M165.019 538.005L170.627 538.059" stroke="white" stroke-linecap="round" stroke-linejoin="round"/>
<path opacity="0.5" d="M161.181 543.437L162.295 531.659" stroke="white" stroke-linecap="round" stroke-linejoin="round"/>
<path opacity="0.5" d="M159.04 546.672L167.415 546.631" stroke="white" stroke-linecap="round" stroke-linejoin="round"/>
<path opacity="0.5" d="M156.05 550.875L155.085 540.298" stroke="white" stroke-linecap="round" stroke-linejoin="round"/>
<path opacity="0.5" d="M153.516 554.56L159.676 555.011" stroke="white" stroke-linecap="round" stroke-linejoin="round"/>
<path opacity="0.5" d="M134.158 536.04C140.794 544.843 140.762 558.764 140.762 558.764C140.762 558.764 129.959 558.395 123.312 549.579C116.665 540.762 116.707 526.855 116.707 526.855C116.707 526.855 127.51 527.223 134.158 536.04Z" fill="white"/>
<path opacity="0.5" d="M140.762 558.764L116.707 526.855" stroke="white" stroke-linecap="round" stroke-linejoin="round"/>
<path opacity="0.5" d="M125.252 538.196L125.719 530.99" stroke="white" stroke-linecap="round" stroke-linejoin="round"/>
<path opacity="0.5" d="M129.185 543.533L120.142 541.212" stroke="white" stroke-linecap="round" stroke-linejoin="round"/>
<path opacity="0.5" d="M131.518 546.508L132.122 535.767" stroke="white" stroke-linecap="round" stroke-linejoin="round"/>
<path opacity="0.5" d="M134.56 550.657L126.291 551.121" stroke="white" stroke-linecap="round" stroke-linejoin="round"/>
<path opacity="0.5" d="M137.232 554.192L138.027 546.331" stroke="white" stroke-linecap="round" stroke-linejoin="round"/>
</g>
<path d="M145.3 554.943V478.269" stroke="#92E3A9" stroke-linecap="round" stroke-linejoin="round"/>
<path d="M145.3 505.523L152.594 497.321" stroke="#92E3A9" stroke-linecap="round" stroke-linejoin="round"/>
<path d="M145.183 518.189L136.151 501.347" stroke="#92E3A9" stroke-linecap="round" stroke-linejoin="round"/>
<path d="M145.3 525.49L156.071 513.125" stroke="#92E3A9" stroke-linecap="round" stroke-linejoin="round"/>
<path d="M145.183 535.331L134.529 523.116" stroke="#92E3A9" stroke-linecap="round" stroke-linejoin="round"/>
<path d="M145.183 543.833L153.516 535.331" stroke="#92E3A9" stroke-linecap="round" stroke-linejoin="round"/>
<g opacity="0.7">
<path opacity="0.7" d="M145.3 554.942V478.268" stroke="white" stroke-linecap="round" stroke-linejoin="round"/>
<path opacity="0.7" d="M145.3 505.523L152.594 497.321" stroke="white" stroke-linecap="round" stroke-linejoin="round"/>
<path opacity="0.7" d="M145.183 518.188L136.151 501.347" stroke="white" stroke-linecap="round" stroke-linejoin="round"/>
<path opacity="0.7" d="M145.3 525.49L156.071 513.125" stroke="white" stroke-linecap="round" stroke-linejoin="round"/>
<path opacity="0.7" d="M145.183 535.33L134.529 523.115" stroke="white" stroke-linecap="round" stroke-linejoin="round"/>
<path opacity="0.7" d="M145.183 543.833L153.516 535.33" stroke="white" stroke-linecap="round" stroke-linejoin="round"/>
</g>
<path d="M150.24 559.446L173.161 526.173" stroke="#92E3A9" stroke-linecap="round" stroke-linejoin="round"/>
<path d="M165.019 538.005L170.627 538.059" stroke="#92E3A9" stroke-linecap="round" stroke-linejoin="round"/>
<path d="M161.181 543.437L162.295 531.659" stroke="#92E3A9" stroke-linecap="round" stroke-linejoin="round"/>
<path d="M159.04 546.672L167.415 546.631" stroke="#92E3A9" stroke-linecap="round" stroke-linejoin="round"/>
<path d="M156.05 550.875L155.085 540.299" stroke="#92E3A9" stroke-linecap="round" stroke-linejoin="round"/>
<path d="M153.516 554.56L159.676 555.011" stroke="#92E3A9" stroke-linecap="round" stroke-linejoin="round"/>
<g opacity="0.7">
<path opacity="0.7" d="M150.24 559.446L173.161 526.173" stroke="white" stroke-linecap="round" stroke-linejoin="round"/>
<path opacity="0.7" d="M165.019 538.005L170.627 538.059" stroke="white" stroke-linecap="round" stroke-linejoin="round"/>
<path opacity="0.7" d="M161.181 543.437L162.295 531.659" stroke="white" stroke-linecap="round" stroke-linejoin="round"/>
<path opacity="0.7" d="M159.04 546.672L167.415 546.631" stroke="white" stroke-linecap="round" stroke-linejoin="round"/>
<path opacity="0.7" d="M156.05 550.875L155.085 540.298" stroke="white" stroke-linecap="round" stroke-linejoin="round"/>
<path opacity="0.7" d="M153.516 554.56L159.676 555.011" stroke="white" stroke-linecap="round" stroke-linejoin="round"/>
</g>
<path d="M140.762 558.764L116.707 526.855" stroke="#92E3A9" stroke-linecap="round" stroke-linejoin="round"/>
<path d="M125.252 538.197L125.719 530.99" stroke="#92E3A9" stroke-linecap="round" stroke-linejoin="round"/>
<path d="M129.185 543.533L120.142 541.213" stroke="#92E3A9" stroke-linecap="round" stroke-linejoin="round"/>
<path d="M131.518 546.508L132.122 535.767" stroke="#92E3A9" stroke-linecap="round" stroke-linejoin="round"/>
<path d="M134.56 550.657L126.291 551.121" stroke="#92E3A9" stroke-linecap="round" stroke-linejoin="round"/>
<path d="M137.232 554.192L138.027 546.331" stroke="#92E3A9" stroke-linecap="round" stroke-linejoin="round"/>
<g opacity="0.7">
<path opacity="0.7" d="M140.762 558.764L116.707 526.855" stroke="white" stroke-linecap="round" stroke-linejoin="round"/>
<path opacity="0.7" d="M125.252 538.197L125.719 530.99" stroke="white" stroke-linecap="round" stroke-linejoin="round"/>
<path opacity="0.7" d="M129.185 543.533L120.142 541.212" stroke="white" stroke-linecap="round" stroke-linejoin="round"/>
<path opacity="0.7" d="M131.518 546.508L132.122 535.767" stroke="white" stroke-linecap="round" stroke-linejoin="round"/>
<path opacity="0.7" d="M134.56 550.657L126.291 551.121" stroke="white" stroke-linecap="round" stroke-linejoin="round"/>
<path opacity="0.7" d="M137.232 554.192L138.027 546.33" stroke="white" stroke-linecap="round" stroke-linejoin="round"/>
</g>
<path d="M451.806 153.83H165.21C165.124 153.832 165.039 153.812 164.959 153.771C164.88 153.73 164.807 153.668 164.746 153.591C164.685 153.513 164.636 153.421 164.603 153.319C164.57 153.217 164.553 153.108 164.553 152.997C164.553 152.773 164.622 152.558 164.745 152.399C164.868 152.24 165.036 152.151 165.21 152.151H451.806C451.892 152.151 451.977 152.173 452.056 152.216C452.135 152.258 452.207 152.321 452.267 152.4C452.328 152.478 452.375 152.572 452.407 152.674C452.439 152.777 452.454 152.887 452.453 152.997C452.453 153.218 452.385 153.43 452.264 153.586C452.142 153.742 451.978 153.83 451.806 153.83Z" fill="#92E3A9"/>
<g opacity="0.3">
<path opacity="0.3" d="M451.806 153.83H165.21C165.124 153.832 165.039 153.812 164.959 153.771C164.88 153.73 164.807 153.668 164.746 153.591C164.685 153.513 164.636 153.421 164.603 153.319C164.57 153.217 164.553 153.108 164.553 152.997C164.553 152.773 164.622 152.558 164.745 152.399C164.868 152.24 165.036 152.151 165.21 152.151H451.806C451.892 152.151 451.977 152.173 452.056 152.216C452.135 152.258 452.207 152.321 452.267 152.4C452.328 152.478 452.375 152.572 452.407 152.674C452.439 152.777 452.454 152.887 452.453 152.997C452.453 153.218 452.385 153.43 452.264 153.586C452.142 153.742 451.978 153.83 451.806 153.83Z" fill="white"/>
</g>
<path d="M451.234 300.163H164.638C164.552 300.165 164.466 300.145 164.387 300.104C164.307 300.063 164.235 300.002 164.173 299.924C164.112 299.847 164.064 299.754 164.03 299.652C163.997 299.551 163.98 299.441 163.98 299.331C163.98 299.106 164.049 298.891 164.173 298.732C164.296 298.574 164.463 298.484 164.638 298.484H451.234C451.32 298.484 451.405 298.506 451.484 298.549C451.563 298.592 451.635 298.654 451.695 298.733C451.755 298.812 451.803 298.905 451.834 299.008C451.866 299.11 451.882 299.22 451.881 299.331C451.881 299.44 451.864 299.548 451.831 299.649C451.799 299.75 451.751 299.842 451.691 299.919C451.631 299.997 451.56 300.058 451.481 300.1C451.403 300.142 451.319 300.163 451.234 300.163Z" fill="#92E3A9"/>
<g opacity="0.3">
<path opacity="0.3" d="M451.234 300.163H164.638C164.552 300.165 164.466 300.145 164.387 300.104C164.307 300.063 164.235 300.002 164.173 299.924C164.112 299.847 164.064 299.754 164.03 299.652C163.997 299.551 163.98 299.441 163.98 299.331C163.98 299.106 164.049 298.891 164.173 298.732C164.296 298.574 164.463 298.484 164.638 298.484H451.234C451.32 298.484 451.405 298.506 451.484 298.549C451.563 298.592 451.635 298.654 451.695 298.733C451.755 298.812 451.803 298.905 451.834 299.008C451.866 299.11 451.882 299.22 451.881 299.331C451.881 299.44 451.864 299.548 451.831 299.649C451.799 299.75 451.751 299.842 451.691 299.919C451.631 299.997 451.56 300.058 451.481 300.1C451.403 300.142 451.319 300.163 451.234 300.163Z" fill="white"/>
</g>
<path d="M451.234 419.787H164.638C164.463 419.787 164.296 419.698 164.173 419.54C164.049 419.381 163.98 419.166 163.98 418.941C163.98 418.831 163.997 418.721 164.03 418.619C164.064 418.518 164.112 418.425 164.173 418.348C164.235 418.27 164.307 418.209 164.387 418.168C164.466 418.127 164.552 418.107 164.638 418.109H451.234C451.319 418.109 451.403 418.13 451.481 418.172C451.56 418.214 451.631 418.275 451.691 418.353C451.751 418.43 451.799 418.522 451.831 418.623C451.864 418.724 451.881 418.832 451.881 418.941C451.882 419.052 451.866 419.161 451.834 419.264C451.803 419.367 451.755 419.46 451.695 419.539C451.635 419.617 451.563 419.68 451.484 419.723C451.405 419.765 451.32 419.787 451.234 419.787Z" fill="#92E3A9"/>
<g opacity="0.3">
<path opacity="0.3" d="M451.234 419.787H164.638C164.463 419.787 164.296 419.698 164.173 419.54C164.049 419.381 163.98 419.166 163.98 418.941C163.98 418.831 163.997 418.721 164.03 418.619C164.064 418.518 164.112 418.425 164.173 418.348C164.235 418.27 164.307 418.209 164.387 418.168C164.466 418.127 164.552 418.107 164.638 418.109H451.234C451.319 418.109 451.403 418.13 451.481 418.172C451.56 418.214 451.631 418.275 451.691 418.353C451.751 418.43 451.799 418.522 451.831 418.623C451.864 418.724 451.881 418.832 451.881 418.941C451.882 419.052 451.866 419.161 451.834 419.264C451.803 419.367 451.755 419.46 451.695 419.539C451.635 419.617 451.563 419.68 451.484 419.723C451.405 419.765 451.32 419.787 451.234 419.787Z" fill="white"/>
</g>
<path d="M225.566 440.027V564.524" stroke="#263238" stroke-width="0.265171" stroke-miterlimit="10"/>
<path d="M239.38 440.027V564.524" stroke="#263238" stroke-width="0.265171" stroke-miterlimit="10"/>
<path d="M253.194 440.027V564.524" stroke="#263238" stroke-width="0.265171" stroke-miterlimit="10"/>
<path d="M267.008 440.027V564.524" stroke="#263238" stroke-width="0.265171" stroke-miterlimit="10"/>
<path d="M280.822 440.027V564.524" stroke="#263238" stroke-width="0.265171" stroke-miterlimit="10"/>
<path d="M294.636 440.027V564.524" stroke="#263238" stroke-width="0.265171" stroke-miterlimit="10"/>
<path d="M308.45 440.027V564.524" stroke="#263238" stroke-width="0.265171" stroke-miterlimit="10"/>
<path d="M322.264 440.027V564.524" stroke="#263238" stroke-width="0.265171" stroke-miterlimit="10"/>
<path d="M336.078 440.027V564.524" stroke="#263238" stroke-width="0.265171" stroke-miterlimit="10"/>
<path d="M349.892 440.027V564.524" stroke="#263238" stroke-width="0.265171" stroke-miterlimit="10"/>
<path d="M363.706 440.027V564.524" stroke="#263238" stroke-width="0.265171" stroke-miterlimit="10"/>
<path d="M377.52 440.027V564.524" stroke="#263238" stroke-width="0.265171" stroke-miterlimit="10"/>
<path d="M226.255 451.587H376.831" stroke="#263238" stroke-width="0.265171" stroke-miterlimit="10"/>
<path d="M226.255 468.483H376.831" stroke="#263238" stroke-width="0.265171" stroke-miterlimit="10"/>
<path d="M226.255 485.379H376.831" stroke="#263238" stroke-width="0.265171" stroke-miterlimit="10"/>
<path d="M226.255 502.276H376.831" stroke="#263238" stroke-width="0.265171" stroke-miterlimit="10"/>
<path d="M226.255 519.172H376.831" stroke="#263238" stroke-width="0.265171" stroke-miterlimit="10"/>
<path d="M226.255 536.068H376.831" stroke="#263238" stroke-width="0.265171" stroke-miterlimit="10"/>
<path d="M226.255 552.964H376.831" stroke="#263238" stroke-width="0.265171" stroke-miterlimit="10"/>
<path d="M257.89 483.701L237.683 563.896H280.005L259.788 483.701C259.723 483.442 259.597 483.216 259.426 483.056C259.256 482.896 259.05 482.81 258.839 482.81C258.628 482.81 258.422 482.896 258.252 483.056C258.081 483.216 257.955 483.442 257.89 483.701Z" fill="#92E3A9" stroke="#263238" stroke-width="1.06068" stroke-miterlimit="10"/>
<path d="M296.417 457.142L269.52 563.896H325.243L298.315 457.142C298.25 456.883 298.123 456.657 297.953 456.497C297.782 456.337 297.577 456.251 297.366 456.251C297.155 456.251 296.949 456.337 296.779 456.497C296.608 456.657 296.481 456.883 296.417 457.142Z" fill="#263238" stroke="#263238" stroke-width="1.06068" stroke-miterlimit="10"/>
<path d="M331.869 502.044L316.274 563.896H349.351L333.724 502.044C333.651 501.804 333.524 501.598 333.358 501.452C333.193 501.307 332.997 501.229 332.797 501.229C332.596 501.229 332.401 501.307 332.235 501.452C332.07 501.598 331.942 501.804 331.869 502.044Z" fill="#92E3A9" stroke="#263238" stroke-width="1.06068" stroke-miterlimit="10"/>
<path d="M353.232 523.28L343.001 563.896H365.36L355.129 523.28C355.065 523.021 354.938 522.796 354.768 522.635C354.597 522.475 354.391 522.389 354.18 522.389C353.969 522.389 353.764 522.475 353.593 522.635C353.423 522.796 353.296 523.021 353.232 523.28Z" fill="#263238" stroke="#263238" stroke-width="1.06068" stroke-miterlimit="10"/>
<path d="M223.742 400.68C217.68 400.68 211.754 398.366 206.714 394.03C201.674 389.695 197.745 383.533 195.426 376.323C193.106 369.113 192.499 361.18 193.681 353.526C194.864 345.872 197.783 338.842 202.07 333.324C206.356 327.806 211.817 324.048 217.763 322.525C223.708 321.003 229.871 321.784 235.471 324.771C241.072 327.757 245.858 332.814 249.226 339.303C252.594 345.791 254.392 353.42 254.392 361.224C254.383 371.685 251.151 381.714 245.405 389.111C239.659 396.509 231.868 400.669 223.742 400.68ZM223.742 333.354C219.461 333.357 215.276 334.994 211.718 338.058C208.159 341.122 205.386 345.475 203.749 350.568C202.112 355.661 201.685 361.264 202.521 366.669C203.358 372.074 205.42 377.039 208.449 380.935C211.477 384.831 215.334 387.484 219.533 388.558C223.732 389.633 228.085 389.08 232.04 386.97C235.995 384.86 239.375 381.288 241.754 376.706C244.132 372.123 245.401 366.735 245.401 361.224C245.396 353.832 243.112 346.746 239.051 341.52C234.99 336.295 229.484 333.358 223.742 333.354Z" fill="#263238" stroke="#263238" stroke-width="1.06068" stroke-miterlimit="10"/>
<path d="M223.742 400.68C219.606 400.697 215.51 399.627 211.706 397.536C207.901 395.445 204.468 392.377 201.616 388.52L208.115 380.508C210.129 383.233 212.553 385.401 215.24 386.877C217.928 388.353 220.821 389.107 223.742 389.093C226.585 389.093 229.4 388.372 232.027 386.972C234.653 385.571 237.04 383.518 239.05 380.93C241.06 378.342 242.655 375.27 243.743 371.889C244.831 368.508 245.391 364.884 245.391 361.224C245.391 357.564 244.831 353.94 243.743 350.559C242.655 347.177 241.06 344.105 239.05 341.517C237.04 338.929 234.653 336.876 232.027 335.476C229.4 334.075 226.585 333.355 223.742 333.355V321.767C227.767 321.767 231.753 322.788 235.471 324.771C239.19 326.754 242.569 329.66 245.415 333.324C248.261 336.988 250.518 341.337 252.059 346.124C253.599 350.912 254.392 356.042 254.392 361.224C254.392 366.405 253.599 371.536 252.059 376.323C250.518 381.11 248.261 385.46 245.415 389.124C242.569 392.788 239.19 395.694 235.471 397.677C231.753 399.66 227.767 400.68 223.742 400.68Z" fill="#92E3A9" stroke="#263238" stroke-width="1.06068" stroke-miterlimit="10"/>
<path d="M299.332 400.68C293.27 400.683 287.343 398.371 282.302 394.037C277.26 389.703 273.33 383.542 271.008 376.332C268.687 369.123 268.078 361.189 269.26 353.534C270.441 345.88 273.36 338.848 277.646 333.329C281.932 327.809 287.393 324.05 293.338 322.526C299.284 321.003 305.447 321.784 311.048 324.769C316.65 327.755 321.437 332.813 324.805 339.301C328.174 345.79 329.971 353.419 329.971 361.224C329.963 371.682 326.733 381.71 320.989 389.107C315.245 396.503 307.457 400.665 299.332 400.68ZM299.332 333.354C295.052 333.36 290.868 334.999 287.311 338.065C283.753 341.13 280.982 345.485 279.347 350.577C277.711 355.67 277.286 361.273 278.123 366.677C278.961 372.082 281.025 377.045 284.053 380.94C287.082 384.835 290.939 387.486 295.138 388.559C299.337 389.632 303.689 389.079 307.643 386.969C311.598 384.859 314.977 381.287 317.355 376.704C319.733 372.122 321.002 366.734 321.002 361.224C320.994 353.831 318.707 346.744 314.645 341.519C310.582 336.295 305.075 333.358 299.332 333.354Z" fill="#263238" stroke="#263238" stroke-width="1.06068" stroke-miterlimit="10"/>
<path d="M311.259 397.568L307.761 386.909C312.358 384.4 316.141 379.924 318.47 374.236C320.798 368.549 321.528 362.001 320.536 355.701C319.544 349.4 316.892 343.734 313.028 339.662C309.164 335.59 304.326 333.362 299.332 333.354V321.767C306.404 321.768 313.258 324.917 318.733 330.681C324.207 336.445 327.965 344.468 329.369 353.391C330.773 362.313 329.736 371.587 326.436 379.638C323.135 387.69 317.773 394.025 311.259 397.568Z" fill="#92E3A9" stroke="#263238" stroke-width="1.06068" stroke-miterlimit="10"/>
<path d="M374.912 400.68C368.85 400.68 362.924 398.366 357.884 394.03C352.844 389.695 348.915 383.533 346.596 376.323C344.276 369.113 343.669 361.18 344.851 353.526C346.034 345.872 348.953 338.842 353.239 333.324C357.526 327.806 362.987 324.048 368.933 322.525C374.878 321.003 381.041 321.784 386.641 324.771C392.242 327.757 397.028 332.814 400.396 339.303C403.764 345.791 405.562 353.42 405.562 361.224C405.553 371.685 402.321 381.714 396.575 389.111C390.829 396.509 383.038 400.669 374.912 400.68ZM374.912 333.354C370.63 333.354 366.445 334.989 362.885 338.051C359.325 341.114 356.55 345.466 354.911 350.559C353.273 355.651 352.844 361.255 353.679 366.661C354.515 372.067 356.576 377.033 359.604 380.93C362.632 384.828 366.489 387.482 370.689 388.557C374.888 389.633 379.241 389.081 383.197 386.971C387.152 384.862 390.533 381.29 392.912 376.707C395.291 372.124 396.561 366.736 396.561 361.224C396.555 353.834 394.272 346.75 390.214 341.525C386.155 336.3 380.652 333.362 374.912 333.354Z" fill="#263238" stroke="#263238" stroke-width="1.06068" stroke-miterlimit="10"/>
<path d="M396.137 355.669C395.131 349.38 392.474 343.729 388.613 339.665C384.751 335.602 379.921 333.373 374.933 333.355V321.767C381.997 321.79 388.839 324.944 394.309 330.698C399.779 336.453 403.543 344.456 404.968 353.363L396.137 355.669Z" fill="#92E3A9" stroke="#263238" stroke-width="1.06068" stroke-miterlimit="10"/>
<path d="M235.966 278.081H379.905" stroke="#263238" stroke-width="1.06068" stroke-miterlimit="10"/>
<path d="M235.966 278.081V274.136" stroke="#263238" stroke-width="1.06068" stroke-miterlimit="10"/>
<path d="M264.75 278.081V274.136" stroke="#263238" stroke-width="1.06068" stroke-miterlimit="10"/>
<path d="M293.544 278.081V274.136" stroke="#263238" stroke-width="1.06068" stroke-miterlimit="10"/>
<path d="M322.327 278.081V274.136" stroke="#263238" stroke-width="1.06068" stroke-miterlimit="10"/>
<path d="M351.111 278.081V274.136" stroke="#263238" stroke-width="1.06068" stroke-miterlimit="10"/>
<path d="M379.905 278.081V274.136" stroke="#263238" stroke-width="1.06068" stroke-miterlimit="10"/>
<path d="M260.721 225.413H239.995V257.008H260.721V225.413Z" fill="#92E3A9" stroke="#263238" stroke-width="1.06068" stroke-miterlimit="10"/>
<path d="M289.505 188.55H268.778V262.276H289.505V188.55Z" fill="#92E3A9" stroke="#263238" stroke-width="1.06068" stroke-miterlimit="10"/>
<path d="M318.299 136.947H297.572V219.108H318.299V136.947Z" fill="#92E3A9" stroke="#263238" stroke-width="1.06068" stroke-miterlimit="10"/>
<path d="M347.082 213.84H326.356V229.644H347.082V213.84Z" fill="#92E3A9" stroke="#263238" stroke-width="1.06068" stroke-miterlimit="10"/>
<path d="M375.866 204.354H355.14V245.435H375.866V204.354Z" fill="#92E3A9" stroke="#263238" stroke-width="1.06068" stroke-miterlimit="10"/>
<path d="M260.721 257.022H239.995V278.094H260.721V257.022Z" fill="#263238" stroke="#263238" stroke-width="1.06068" stroke-miterlimit="10"/>
<path d="M289.505 262.29H268.778V278.094H289.505V262.29Z" fill="#263238" stroke="#263238" stroke-width="1.06068" stroke-miterlimit="10"/>
<path d="M318.299 219.094H297.572V278.081H318.299V219.094Z" fill="#263238" stroke="#263238" stroke-width="1.06068" stroke-miterlimit="10"/>
<path d="M347.082 229.63H326.356V278.081H347.082V229.63Z" fill="#263238" stroke="#263238" stroke-width="1.06068" stroke-miterlimit="10"/>
<path d="M375.866 245.435H355.14V278.081H375.866V245.435Z" fill="#263238" stroke="#263238" stroke-width="1.06068" stroke-miterlimit="10"/>
<path d="M418.262 122.029C418.013 122.032 417.768 121.954 417.547 121.804C417.327 121.654 417.139 121.436 417.001 121.17L372.41 37.4531L327.172 99.5513L280.981 60.7911L236.295 74.1388L190.909 121.593C190.594 121.922 190.19 122.077 189.786 122.023C189.383 121.969 189.012 121.712 188.756 121.306C188.501 120.901 188.38 120.381 188.422 119.861C188.464 119.342 188.664 118.865 188.979 118.536L234.916 70.5085L281.564 56.5739L326.706 94.4606L372.792 31.1887L419.524 118.945C419.683 119.24 419.775 119.584 419.793 119.942C419.81 120.299 419.751 120.656 419.622 120.974C419.494 121.291 419.3 121.558 419.062 121.744C418.824 121.93 418.551 122.029 418.273 122.029H418.262Z" fill="#263238"/>
<path d="M193.782 120.064C193.782 121.028 193.56 121.97 193.144 122.771C192.728 123.572 192.137 124.197 191.445 124.566C190.754 124.934 189.993 125.031 189.258 124.843C188.524 124.655 187.85 124.191 187.321 123.509C186.791 122.828 186.431 121.96 186.285 121.015C186.139 120.07 186.214 119.09 186.5 118.2C186.787 117.309 187.272 116.548 187.894 116.013C188.517 115.478 189.248 115.192 189.997 115.192C191.001 115.192 191.963 115.705 192.673 116.619C193.383 117.533 193.782 118.772 193.782 120.064Z" fill="#92E3A9"/>
<path d="M235.605 77.1963C237.696 77.1963 239.39 75.0149 239.39 72.324C239.39 69.6331 237.696 67.4517 235.605 67.4517C233.515 67.4517 231.821 69.6331 231.821 72.324C231.821 75.0149 233.515 77.1963 235.605 77.1963Z" fill="#92E3A9"/>
<path d="M281.267 63.5481C283.357 63.5481 285.052 61.3666 285.052 58.6757C285.052 55.9847 283.357 53.8032 281.267 53.8032C279.177 53.8032 277.482 55.9847 277.482 58.6757C277.482 61.3666 279.177 63.5481 281.267 63.5481Z" fill="#92E3A9"/>
<path d="M326.929 101.872C329.019 101.872 330.713 99.6902 330.713 96.9994C330.713 94.3086 329.019 92.1272 326.929 92.1272C324.838 92.1272 323.144 94.3086 323.144 96.9994C323.144 99.6902 324.838 101.872 326.929 101.872Z" fill="#92E3A9"/>
<path d="M376.375 34.3279C376.375 35.2916 376.153 36.2336 375.737 37.0349C375.321 37.8362 374.73 38.4607 374.039 38.8295C373.347 39.1983 372.586 39.2948 371.852 39.1068C371.118 38.9188 370.443 38.4547 369.914 37.7733C369.385 37.0919 369.024 36.2236 368.878 35.2785C368.732 34.3333 368.807 33.3536 369.094 32.4632C369.38 31.5729 369.865 30.8119 370.488 30.2765C371.11 29.7411 371.842 29.4553 372.59 29.4553C373.594 29.4553 374.557 29.9687 375.267 30.8825C375.976 31.7962 376.375 33.0356 376.375 34.3279Z" fill="#92E3A9"/>
<path d="M422.037 120.064C422.037 121.028 421.815 121.97 421.399 122.771C420.983 123.572 420.392 124.197 419.7 124.566C419.009 124.934 418.248 125.031 417.513 124.843C416.779 124.655 416.105 124.191 415.576 123.509C415.046 122.828 414.686 121.96 414.54 121.015C414.394 120.07 414.469 119.09 414.755 118.2C415.042 117.309 415.527 116.548 416.149 116.013C416.772 115.478 417.503 115.192 418.252 115.192C419.256 115.192 420.218 115.705 420.928 116.619C421.638 117.533 422.037 118.772 422.037 120.064Z" fill="#92E3A9"/>
<path d="M499.874 584.45C540.287 584.45 573.048 578.785 573.048 571.798C573.048 564.811 540.287 559.146 499.874 559.146C459.462 559.146 426.701 564.811 426.701 571.798C426.701 578.785 459.462 584.45 499.874 584.45Z" fill="#92E3A9"/>
<path opacity="0.7" d="M499.874 584.45C540.287 584.45 573.048 578.785 573.048 571.798C573.048 564.811 540.287 559.146 499.874 559.146C459.462 559.146 426.701 564.811 426.701 571.798C426.701 578.785 459.462 584.45 499.874 584.45Z" fill="white"/>
<path d="M98.9811 584.45C136.273 584.45 166.503 578.785 166.503 571.798C166.503 564.811 136.273 559.146 98.9811 559.146C61.6895 559.146 31.4587 564.811 31.4587 571.798C31.4587 578.785 61.6895 584.45 98.9811 584.45Z" fill="#92E3A9"/>
<path opacity="0.7" d="M98.9811 584.45C136.273 584.45 166.503 578.785 166.503 571.798C166.503 564.811 136.273 559.146 98.9811 559.146C61.6895 559.146 31.4587 564.811 31.4587 571.798C31.4587 578.785 61.6895 584.45 98.9811 584.45Z" fill="white"/>
<path d="M479.222 126.097C479.222 126.097 507.02 122.63 508.61 128.594C510.201 134.558 509.67 148.179 509.67 148.179C511.071 148.648 512.437 149.273 513.752 150.049C514.123 150.513 518.237 153.979 514.399 159.671C513.396 161.114 512.182 162.287 510.826 163.124C509.134 164.088 507.524 165.277 506.023 166.672L500.447 174.82L501.507 185.315C501.507 185.315 503.998 187.635 507.041 195.729C507.041 195.729 514.229 201.188 518.449 204.286C521.919 206.633 525.527 208.623 529.241 210.236C529.241 210.236 531.171 211.042 531.033 212.829C530.895 214.617 521.428 255.138 521.428 255.138L516.445 275.61C516.35 278.126 516.095 280.627 515.682 283.089C514.971 287.497 512.3 290.391 509.533 289.49L509.808 304.503C509.808 304.503 496.811 312.869 475.374 311.449C475.374 311.449 465.281 310.194 457.817 303.083L457.68 268.008L423.288 259.437C423.288 259.437 418.93 258.25 421.167 253.2C423.404 248.15 430.921 235.621 430.921 235.621L455.082 197.571C455.082 197.571 456.747 195.046 457.362 194.241C457.976 193.436 459.482 192.876 465.451 192.235C471.419 191.593 478.109 190.106 478.109 190.106C478.109 190.106 481.735 186.093 482.254 186.093C482.774 186.093 482.88 180.088 482.88 180.088C481.046 178.385 479.521 176.19 478.41 173.655C477.299 171.119 476.629 168.304 476.445 165.403C475.925 155.658 479.243 132.825 479.243 132.825L479.222 126.097Z" fill="white"/>
<path d="M458.242 302.947C458.242 302.947 455.315 358.903 455.315 385.681C455.315 412.458 456.619 434.145 457.266 452.952C457.913 471.759 455.315 484.711 457.584 498.495C459.853 512.279 465.058 552.405 465.058 552.405L471.176 557.154C471.176 557.154 472.236 525.231 474.462 513.958C476.688 502.685 477.388 455.04 478.703 440.409C480.017 425.779 484.226 373.971 484.226 373.971C484.226 373.971 500.458 428.29 504.37 449.608C508.282 470.926 521.576 518.967 524.513 530.663C527.45 542.36 531.976 559.693 531.976 559.693C533.352 560.21 534.797 560.35 536.217 560.102C536.831 560.039 537.421 559.775 537.933 559.335C538.445 558.896 538.862 558.295 539.143 557.591C539.143 557.591 534.828 522.597 532.931 505.592C530.588 484.56 526.771 452.952 524.449 441.255C522.128 429.559 518.608 411.162 518.608 402.386C518.608 393.61 509.851 305.485 509.851 305.485C509.851 305.485 479.339 322.586 458.242 302.947Z" fill="#263238"/>
<path d="M484.205 373.971L471.186 354.427" stroke="white" stroke-width="0.530341" stroke-miterlimit="10" stroke-linecap="round"/>
<path d="M467.857 355.86L478.576 368.703" stroke="white" stroke-width="0.530341" stroke-miterlimit="10" stroke-linecap="round"/>
<path d="M490.768 357.293C493.512 348.354 498.613 340.942 505.175 336.357" stroke="white" stroke-width="0.530341" stroke-miterlimit="10" stroke-linecap="round"/>
<path d="M505.907 310.208C505.907 310.208 504.433 317.332 506.278 321.617C508.123 325.903 509.978 325.903 509.978 325.903C509.978 325.903 513.296 349.2 513.296 362.52C513.296 375.841 511.081 377.26 513.296 392C515.512 406.74 516.996 411.503 516.996 420.06C516.996 428.617 519.944 434.336 522.53 439.563C525.117 444.79 525.859 460.035 525.859 466.19C525.859 472.345 527.333 479.033 528.817 485.215C528.817 485.215 529.167 499.082 531.033 502.33C532.899 505.578 533.249 516.606 533.249 516.606" stroke="white" stroke-width="0.530341" stroke-miterlimit="10" stroke-linecap="round"/>
<path d="M481.533 372.033C481.533 372.033 482.265 382.951 479.678 401.99C477.091 421.029 475.247 426.243 474.876 448.12C474.505 469.998 475.989 473.806 475.247 485.215C474.505 496.625 470.073 514.654 470.073 522.843C470.073 531.032 470.752 557.208 470.752 557.208" stroke="white" stroke-width="0.530341" stroke-miterlimit="10" stroke-linecap="round"/>
<path d="M473.402 313.06L474.144 316.868L478.947 318.287L478.205 313.538" stroke="white" stroke-width="0.530341" stroke-miterlimit="10" stroke-linecap="round"/>
<path d="M478.968 318.287C478.968 318.287 487.831 317.809 492.262 315.912L491.202 312.105" stroke="white" stroke-width="0.530341" stroke-miterlimit="10" stroke-linecap="round"/>
<path d="M495.199 311.149L496.259 315.912C496.259 315.912 503.352 315.394 504.412 314.029" stroke="white" stroke-width="0.530341" stroke-miterlimit="10" stroke-linecap="round"/>
<path d="M474.144 316.868C471.694 316.769 469.294 315.952 467.126 314.479L463.797 312.105L464.857 308.775" stroke="white" stroke-width="0.530341" stroke-miterlimit="10" stroke-linecap="round"/>
<path d="M465.058 552.404C465.058 552.404 449.156 565.766 446.876 572.03C444.597 578.295 453.693 575.797 460.182 572.453C466.67 569.11 470.783 557.154 470.783 557.154L465.058 552.404Z" fill="white" stroke="#263238" stroke-width="1.06068" stroke-miterlimit="10" stroke-linecap="round"/>
<path d="M532.485 559.87C533.287 565.594 534.866 571.092 537.15 576.111C540.649 583.112 547.253 589.118 547.253 578.104C547.253 567.09 539.101 557.632 539.101 557.632C539.101 557.632 535.051 560.457 532.485 559.87Z" fill="white" stroke="#263238" stroke-width="1.06068" stroke-miterlimit="10" stroke-linecap="round"/>
<path d="M479.127 133.658C479.127 133.658 475.681 161.172 476.848 167.996C479.509 183.268 488.849 182.613 494.69 179.692C500.15 176.963 505.599 167.314 506.299 166.044C506.349 165.955 506.419 165.888 506.501 165.853C507.37 165.539 512.766 163.328 515.141 157.965C517.738 152.11 512.872 149.612 512.872 149.612" fill="white"/>
<g style="mix-blend-mode:multiply" opacity="0.5">
<path d="M501.231 173.128L506.384 165.84C506.384 165.84 512.48 163.424 515.141 157.897C516.699 154.662 515.841 151.837 514.897 151.073C513.604 150.172 512.269 149.374 510.9 148.684L509.172 153.584L507.699 153.912C507.699 153.912 508.313 148.862 506.532 145.873C504.751 142.884 504.348 134.231 504.348 134.231C504.348 134.231 501.857 151.482 501.55 158.702C501.47 162.72 500.495 166.624 498.74 169.948C498.74 169.948 499.058 174.356 499.673 178.764C499.747 179.283 499.821 180.061 499.896 181.03L500.744 179.283L501.21 180.948C500.68 178.082 500.436 175.039 501.231 173.128Z" fill="#92E3A9"/>
</g>
<path d="M479.127 133.658C479.127 133.658 475.681 161.172 476.848 167.996C479.509 183.268 488.849 182.613 494.69 179.692C500.15 176.963 505.599 167.314 506.299 166.044C506.349 165.955 506.419 165.888 506.501 165.853C507.37 165.539 512.766 163.328 515.141 157.965C517.738 152.11 512.872 149.612 512.872 149.612" stroke="#263238" stroke-width="1.06068" stroke-miterlimit="10" stroke-linecap="round"/>
<path d="M492.315 147.647C492.114 148.739 492.315 149.722 492.708 149.844C493.1 149.967 493.63 149.203 493.832 148.125C494.033 147.046 493.832 146.064 493.439 145.927C493.047 145.791 492.517 146.569 492.315 147.647Z" fill="#263238"/>
<path d="M483.209 144.794C483.007 145.886 483.209 146.869 483.601 146.992C483.993 147.115 484.523 146.35 484.725 145.272C484.926 144.194 484.725 143.198 484.332 143.075C483.94 142.952 483.399 143.703 483.209 144.794Z" fill="#263238"/>
<path d="M497.966 142.87C497.465 141.735 496.752 140.78 495.891 140.091C495.03 139.402 494.048 139.002 493.036 138.926" stroke="#263238" stroke-width="1.06068" stroke-miterlimit="10" stroke-linecap="round"/>
<path d="M486.06 139.131C485.226 138.661 484.3 138.53 483.406 138.754C482.512 138.978 481.693 139.548 481.056 140.386" stroke="#263238" stroke-width="1.06068" stroke-miterlimit="10" stroke-linecap="round"/>
<path d="M486.675 144.098C486.695 145.927 486.589 147.754 486.357 149.558C486.007 151.837 484.629 152.287 484.979 154.048C485.329 155.808 487.099 155.986 487.099 155.986" stroke="#263238" stroke-width="1.06068" stroke-miterlimit="10" stroke-linecap="round"/>
<path d="M488.944 163.096C489.694 163.404 490.488 163.499 491.269 163.374C492.051 163.249 492.802 162.908 493.471 162.373" stroke="#263238" stroke-width="1.06068" stroke-miterlimit="10" stroke-linecap="round"/>
<path d="M505.737 114.442C505.737 114.442 498.602 106.499 491.785 106.499C484.968 106.499 479.445 111.521 475.225 111.958C471.006 112.394 468.091 107.358 465.493 114.046C462.896 120.733 472.639 132.02 479.127 133.685C485.615 135.35 494.701 132.853 497.298 132.43C499.787 132.21 502.284 132.21 504.772 132.43C504.772 132.43 502.822 140.373 504.772 142.884C506.723 145.395 507.041 147.06 507.041 148.725C507.153 150.563 507.369 152.387 507.688 154.184L509.639 155.031L510.614 150.431C513.246 146.818 515.045 142.334 515.809 137.479C516.774 129.959 511.907 122.467 511.907 122.467L505.737 114.442Z" fill="#263238"/>
<path d="M478.406 130.259C478.406 130.259 489.506 132.989 498.199 128.335C506.893 123.681 499.397 114.441 499.397 114.441" stroke="white" stroke-width="0.530341" stroke-miterlimit="10" stroke-linecap="round"/>
<path d="M501.232 113.664C502.133 113.664 509.628 120.993 508.123 126.397C506.617 131.802 503.628 132.198 503.628 132.198" stroke="white" stroke-width="0.530341" stroke-miterlimit="10" stroke-linecap="round"/>
<path d="M500.002 279.445L490.63 273.085C488.221 272.913 485.826 272.512 483.463 271.884C481.279 271.079 458.867 268.322 458.867 268.322L458.528 275.146C458.528 275.146 484.089 279.568 489.379 280.373C494.669 281.178 499.355 284.386 500.288 286.392C501.221 288.398 503.097 290.404 502.164 295.945C501.231 301.487 494.998 309.594 494.998 309.594C494.701 309.02 509.988 307.601 509.84 305.499C509.511 301.323 507.783 289.121 507.783 289.121L500.002 279.445Z" fill="#92E3A9"/>
<path opacity="0.5" d="M500.002 279.445L490.63 273.085C488.221 272.913 485.826 272.512 483.463 271.884C481.279 271.079 458.867 268.322 458.867 268.322L458.528 275.146C458.528 275.146 484.089 279.568 489.379 280.373C494.669 281.178 499.355 284.386 500.288 286.392C501.221 288.398 503.097 290.404 502.164 295.945C501.232 301.487 494.998 309.594 494.998 309.594C494.754 308.979 510.02 307.587 509.84 305.499C509.342 300.176 507.783 289.121 507.783 289.121L500.002 279.445Z" fill="white"/>
<path d="M530.916 212.679C530.089 207.684 523.919 208.353 520.198 205.582C516.477 202.812 507.476 196.397 507.476 196.397L503.119 187.963C502.332 185.689 501.697 183.333 501.221 180.92L500.754 179.255L499.906 181.002C500.447 188.481 500.966 207.63 500.966 207.63L502.832 219.667C502.832 219.667 510.01 259.383 511.876 268.213C513.741 277.043 513.742 283.048 512.501 285.86C511.261 288.671 511.674 289.954 511.674 289.954C511.674 289.954 516.54 285.109 516.243 280.305C515.851 274.655 531.499 216.064 530.916 212.679Z" fill="#92E3A9"/>
<path opacity="0.5" d="M530.916 212.679C530.492 207.602 523.919 208.353 520.198 205.582C516.477 202.812 507.476 196.397 507.476 196.397L503.119 187.963C502.332 185.689 501.697 183.333 501.221 180.92L500.754 179.255L499.906 181.002C500.447 188.481 500.966 207.63 500.966 207.63L502.832 219.667C502.832 219.667 510.01 259.383 511.876 268.213C513.741 277.043 513.742 283.048 512.501 285.86C511.261 288.671 511.674 289.954 511.674 289.954C511.674 289.954 516.678 285.095 516.243 280.305C515.745 275.16 531.298 216.897 530.916 212.679Z" fill="white"/>
<path d="M503.68 207.671C503.68 207.671 501.73 185.111 500.754 179.256C499.779 173.401 500.436 170.07 496.217 170.07C491.997 170.07 486.803 169.224 487.736 172.159C488.668 175.093 495.157 172.568 496.217 173.824C497.277 175.079 496.535 178 496.535 178C496.535 178 488.054 178.846 488.054 181.767C488.054 184.687 488.382 192.685 490.004 193.463C491.626 194.241 492.273 189.71 492.273 189.71C492.273 189.71 492.602 199.263 494.224 202.662C495.257 204.761 496.454 206.718 497.797 208.503L503.68 207.671Z" fill="white" stroke="#263238" stroke-width="1.06068" stroke-miterlimit="10" stroke-linecap="round"/>
<path d="M497.839 213.935C497.839 213.935 496.863 265.797 498.486 274.109C500.108 282.42 508.875 293.748 513.413 288.316C517.95 282.884 515.692 271.188 515.692 265.756C515.692 260.324 505.303 220.213 505.303 217.279C505.148 214.842 504.708 212.449 503.998 210.182" stroke="#263238" stroke-width="1.06068" stroke-miterlimit="10" stroke-linecap="round"/>
<path d="M498.486 220.213L504.974 219.367" stroke="#263238" stroke-width="1.06068" stroke-miterlimit="10" stroke-linecap="round"/>
<path d="M456.99 246.144L458.242 200C458.242 200 456.683 198.799 456.058 203.208C455.432 207.616 455.125 216.46 455.125 216.46C455.125 216.46 447.64 210.441 449.516 214.044C451.393 217.647 454.499 225.686 454.499 225.686L442.922 240.521L448.223 243.333L456.99 246.144Z" fill="#92E3A9"/>
<path opacity="0.5" d="M456.99 246.144L458.242 200C458.242 200 456.683 198.799 456.058 203.208C455.432 207.616 455.125 216.46 455.125 216.46C455.125 216.46 447.64 210.441 449.516 214.044C451.393 217.647 454.499 225.686 454.499 225.686L442.922 240.521L448.223 243.333L456.99 246.144Z" fill="white"/>
<path d="M472.511 210.305C472.511 210.305 471.918 213.034 474.409 213.034C476.901 213.034 481.279 210.755 481.279 210.755L480.961 206.224C480.961 206.224 474.971 209.977 472.511 210.305Z" fill="#92E3A9"/>
<path opacity="0.5" d="M472.511 210.305C472.511 210.305 471.918 213.034 474.409 213.034C476.901 213.034 481.279 210.755 481.279 210.755L480.961 206.224C480.961 206.224 474.971 209.977 472.511 210.305Z" fill="white"/>
<path d="M483.209 179.788C483.209 179.788 479.965 204.354 481.915 209.813C483.866 215.273 486.781 213.99 489.05 211.492C491.319 208.995 494.245 202.716 494.245 202.716" stroke="#263238" stroke-width="1.06068" stroke-miterlimit="10" stroke-linecap="round"/>
<path d="M457.584 268.677L458.242 302.947C458.242 302.947 465.663 312.132 479.986 312.132C494.309 312.132 509.851 305.445 509.851 305.445V293.325" stroke="#263238" stroke-width="1.06068" stroke-miterlimit="10" stroke-linecap="round"/>
<path d="M501.412 184.688C501.412 184.688 507.253 192.208 507.253 199.318C507.253 206.429 506.278 208.094 506.278 208.094" stroke="#263238" stroke-width="1.06068" stroke-miterlimit="10" stroke-linecap="round"/>
<path d="M506.596 195.142C506.596 195.142 515.364 201.816 520.23 205.583C525.096 209.349 530.948 209.336 530.948 212.679C530.948 216.023 517.314 272.853 517.314 272.853" stroke="#263238" stroke-width="1.06068" stroke-miterlimit="10" stroke-linecap="round"/>
<path d="M512.119 213.935L508.875 230.654" stroke="#263238" stroke-width="1.06068" stroke-miterlimit="10" stroke-linecap="round"/>
<path d="M457.669 223.748L452.421 209.581" stroke="#263238" stroke-width="0.530341" stroke-miterlimit="10" stroke-linecap="round"/>
<path d="M457.669 227.801L449.803 221.728" stroke="#263238" stroke-width="0.530341" stroke-miterlimit="10" stroke-linecap="round"/>
<path d="M483.336 259.492L481.767 269.619" stroke="#263238" stroke-width="0.530341" stroke-miterlimit="10" stroke-linecap="round"/>
<path d="M525.774 212.283C525.774 212.283 517.919 214.303 510.582 225.768" stroke="#263238" stroke-width="0.530341" stroke-miterlimit="10" stroke-linecap="round"/>
<path d="M520.537 211.669C520.537 211.669 518.417 210.987 511.112 219.081" stroke="#263238" stroke-width="0.530341" stroke-miterlimit="10" stroke-linecap="round"/>
<path d="M483.336 214.986L480.198 246.676L482.816 247.359L484.915 237.246" stroke="#263238" stroke-width="0.530341" stroke-miterlimit="10" stroke-linecap="round"/>
<path d="M485.435 297.938C475.999 308.065 462.906 307.383 462.906 307.383" stroke="#263238" stroke-width="0.530341" stroke-miterlimit="10" stroke-linecap="round"/>
<path d="M445.562 242.896C445.562 242.896 439.148 235.335 430.062 244.957" stroke="#263238" stroke-width="0.530341" stroke-miterlimit="10" stroke-linecap="round"/>
<path d="M482.583 185.943C482.583 185.943 479.986 186.776 477.06 192.631C474.133 198.486 470.571 208.503 473.169 209.336C475.766 210.168 480.59 206.415 480.59 206.415" stroke="#263238" stroke-width="1.06068" stroke-miterlimit="10" stroke-linecap="round"/>
<path d="M492.644 208.094L495.888 211.847" stroke="#263238" stroke-width="1.06068" stroke-miterlimit="10" stroke-linecap="round"/>
<path d="M478.035 190.12C478.035 190.12 466.023 192.208 461.157 192.631C456.291 193.054 457.234 195.36 455.644 196.807C453.078 199.114 423.648 247.141 421.719 251.74C419.789 256.339 420.097 258.427 423.341 259.683C426.585 260.939 458.899 268.254 458.899 268.254L487.449 272.021L489.718 262.822C489.718 262.822 496.355 263.955 497.521 263.955" stroke="#263238" stroke-width="1.06068" stroke-miterlimit="10" stroke-linecap="round"/>
<path d="M486.474 259.437C480.173 257.084 474.082 253.882 468.303 249.884" stroke="#263238" stroke-width="1.06068" stroke-miterlimit="10" stroke-linecap="round"/>
<path d="M465.705 249.038C465.705 249.038 456.164 244.479 451.001 243.647C445.838 242.814 437.929 242.541 437.929 242.541" stroke="#263238" stroke-width="1.06068" stroke-miterlimit="10" stroke-linecap="round"/>
<path d="M456.938 243.606L457.913 210.591" stroke="#263238" stroke-width="1.06068" stroke-miterlimit="10" stroke-linecap="round"/>
<path d="M487.449 272.021C489.676 273.462 492.01 274.614 494.415 275.46" stroke="#263238" stroke-width="1.06068" stroke-miterlimit="10" stroke-linecap="round"/>
<path d="M62.6702 245.421L66.4974 218.494L90.7223 206.211C90.7223 206.211 91.8991 197.844 93.0865 197.476C94.2739 197.107 95.4401 193.668 95.4401 193.668L94.857 186.776C94.857 186.776 97.0727 175.857 108.215 184.36C108.215 184.36 104.844 187.254 105.427 188.455C106.01 189.656 104.78 193.477 106.254 193.477C107.727 193.477 110.707 195.893 112.212 197.844C113.266 199.302 114.197 200.898 114.99 202.607L127.531 203.536C128.817 203.549 130.096 203.774 131.338 204.204C131.55 196.316 130.797 190.297 129.313 185.616C123.916 168.72 114.078 162.687 112.668 154.225C111.258 145.764 111.968 144.877 111.968 144.877C113.402 143 114.452 140.695 115.023 138.168C115.595 135.641 115.671 132.97 115.244 130.396C113.845 121.347 108.448 115.001 88.9942 113.8C69.5401 112.599 72.3601 129.782 72.3601 129.782L72.5934 130.983C72.5934 130.983 60.1682 136.442 62.5217 156.627C64.8753 176.813 71.6604 185.588 71.4272 191.921C71.1939 198.254 63.9212 200.669 53.6057 215.123C43.2902 229.576 41.1911 251.317 45.4106 265.497C47.5309 272.471 51.6762 278.285 56.8816 282.625L62.6702 245.421Z" fill="#263238"/>
<path d="M78.912 248.083V254.17L69.9323 289.886C75.5435 291.798 81.428 291.957 87.0965 290.35C90.2963 289.277 93.3546 287.598 96.1716 285.369L78.912 248.083Z" fill="#263238"/>
<path d="M104.727 188.236L105.787 194.378C105.787 194.378 108.968 190.283 115.18 202.717C115.18 202.717 128.093 202.321 131.613 204.586C131.613 204.586 132.345 204.859 134.73 208.121C137.115 211.383 146.084 221.769 146.084 221.769C146.084 221.769 157.598 235.526 158.743 236.591C159.888 237.655 164.182 242.937 167.394 244.78L176.003 219.545L179.84 207.057L181.961 196.78H182.639L182.788 188.495L182.268 178.614C182.353 178.112 182.531 177.643 182.788 177.249C183.677 175.664 184.36 173.903 184.813 172.036C184.813 171.108 184.081 165.621 184.081 165.621C184.081 165.621 183.721 164.257 184.505 164.093C185.29 163.929 188.184 165.226 188.544 167.832L189.605 167.368C190.483 164.668 191.577 162.093 192.87 159.685C194.587 156.818 196.347 155.017 197.439 155.945C197.739 156.211 197.955 156.606 198.048 157.059C198.141 157.512 198.106 157.993 197.948 158.415L194.534 166.495C194.534 166.495 193.029 169.102 194.895 170.03C194.895 170.03 198.934 173.373 199.199 176.308C199.464 179.242 198.001 181.767 196.708 183.923C195.414 186.08 193.135 190.747 193.135 190.747L190.484 193.764L189.424 198.963L190.675 200.97L188.809 211.383L187.463 219.19L186.784 223.925L182.544 242.623L178.303 258.919C178.303 258.919 176.119 268.254 170.829 267.995C165.539 267.735 159.739 264.05 157.863 262.849C155.986 261.648 140.519 251.249 140.519 251.249L137.338 249.311C137.763 251.175 137.945 253.116 137.879 255.056C137.826 258.66 134.815 266.603 133.935 268.404L133.415 282.489C133.21 284.932 133.246 287.399 133.521 289.831C133.988 293.503 136.373 314.275 136.893 316.868C136.893 316.868 131.74 322.873 116.389 325.726C101.038 328.578 93.8498 323.951 93.8498 323.951L87.0117 318.779L95.4401 297.338C95.4401 297.338 97.5604 290.964 97.3484 289.286C97.1363 287.607 93.5106 280.373 93.5106 280.373L80.2054 249.884L79.5799 250.157L77.5126 259.055L70.0384 289.231L60.2 326.899C60.2 326.899 57.5071 336.453 56.3939 339.278L53.2876 351.466C53.4602 353.643 53.878 355.776 54.528 357.798L46.7146 351.288L48.1034 341.735L49.8315 327.486L51.9518 311.996L53.8177 299.18L56.7968 282.093L57.857 277.371L59.9773 264.023L63.7091 239.812L66.8896 219.08L89.1533 207.684L90.5421 206.32C90.8509 203.681 91.6035 201.161 92.7472 198.936C93.5411 197.472 94.4863 196.154 95.5567 195.019C95.5567 195.019 95.4507 193.231 95.3765 191.539C95.3022 189.847 94.963 186.735 94.963 186.735C94.963 186.735 101.844 190.543 104.727 188.236Z" fill="white"/>
<path d="M74.9045 133.385C74.9045 133.385 79.0286 121.634 87.2767 121.634C95.5249 121.634 112.604 142.488 112.604 142.488" stroke="white" stroke-width="0.530341" stroke-miterlimit="10" stroke-linecap="round"/>
<path d="M78.4349 135.241C78.4349 135.241 83.4389 128.417 89.6303 131.065C95.8218 133.713 96.7017 143.198 96.7017 143.198" stroke="white" stroke-width="0.530341" stroke-miterlimit="10" stroke-linecap="round"/>
<path d="M74.3109 136.415C74.3109 136.415 66.9533 141.724 66.3596 151.592C65.7659 161.459 76.6644 173.196 78.1381 186.476C79.6117 199.755 71.9573 202.771 59.5851 213.771C47.2129 224.772 49.2802 249.406 51.9306 254.715" stroke="white" stroke-width="0.530341" stroke-miterlimit="10" stroke-linecap="round"/>
<path d="M53.4043 257.759C53.4043 257.759 55.1642 262.686 57.8146 264.201" stroke="white" stroke-width="0.530341" stroke-miterlimit="10" stroke-linecap="round"/>
<path d="M75.2014 162.196C74.853 163.159 74.6967 164.219 74.7467 165.279C74.7966 166.34 75.0513 167.368 75.4876 168.269C76.9613 171.681 88.2097 188.741 87.2767 196.712C86.3438 204.682 80.5022 209.595 80.5022 209.595" stroke="white" stroke-width="0.530341" stroke-miterlimit="10" stroke-linecap="round"/>
<path d="M80.7885 136.415C80.7885 136.415 74.014 140.209 74.3108 148.93C74.6077 157.651 76.0813 159.93 76.0813 159.93" stroke="white" stroke-width="0.530341" stroke-miterlimit="10" stroke-linecap="round"/>
<path d="M112.604 165.267C114.709 171.401 117.597 177.039 121.149 181.945C126.45 188.769 127.033 198.636 127.033 198.636" stroke="white" stroke-width="0.530341" stroke-miterlimit="10" stroke-linecap="round"/>
<path d="M118.785 186.844C118.785 186.844 121.435 194.814 121.435 199.741" stroke="white" stroke-width="0.530341" stroke-miterlimit="10" stroke-linecap="round"/>
<path d="M104.123 188.959L95.8005 198.608C95.8005 198.608 94.91 201.529 93.2349 206.21C91.5598 210.892 91.8355 219.858 91.8355 219.858L96.9667 233.001C96.9667 233.001 87.0965 218.425 86.5346 216.624C85.9727 214.822 75.6467 218.07 73.6959 219.149C71.7452 220.227 69.222 222.383 69.7839 225.618C70.3458 228.852 72.8584 233.151 71.7346 233.875C70.6109 234.598 67.5469 232.797 67.5469 234.953C67.5469 237.109 71.1833 245.38 69.5083 248.246C67.8332 251.112 57.2209 297.488 57.2209 297.488C57.2209 297.488 63.9212 290.296 62.2461 293.175C60.571 296.055 52.4819 319.407 52.4819 319.407L49.4074 333.055L56.6696 284.55L62.808 243.606L66.4974 218.494C70.0596 216.965 90.7223 206.21 90.7223 206.21C90.7223 206.21 92.355 197.366 95.4401 193.668L94.857 186.776C94.857 186.776 100.486 189.314 104.123 188.959Z" fill="#92E3A9"/>
<path opacity="0.5" d="M104.123 188.959L95.8005 198.608C95.8005 198.608 94.91 201.529 93.2349 206.21C91.5598 210.892 91.8355 219.858 91.8355 219.858L96.9667 233.001C96.9667 233.001 87.0965 218.425 86.5346 216.624C85.9727 214.822 75.6467 218.07 73.6959 219.149C71.7452 220.227 69.222 222.383 69.7839 225.618C70.3458 228.852 72.8584 233.151 71.7346 233.875C70.6109 234.598 67.5469 232.797 67.5469 234.953C67.5469 237.109 71.1833 245.38 69.5083 248.246C67.8332 251.112 57.2209 297.488 57.2209 297.488C57.2209 297.488 63.9212 290.296 62.2461 293.175C60.571 296.055 52.4819 319.407 52.4819 319.407L49.4074 333.055L56.6696 284.55L62.808 243.606L66.4974 218.494C70.0596 216.965 90.7223 206.21 90.7223 206.21C90.7223 206.21 91.1676 198.022 95.4507 195.155L94.857 186.776C94.857 186.776 100.486 189.314 104.123 188.959Z" fill="white"/>
<path d="M135.101 237.464C135.101 237.464 140.126 226.696 140.688 229.207C141.25 231.719 139.289 240.33 139.289 240.33C139.289 240.33 144.59 237.819 144.038 239.976C143.487 242.132 142.363 243.21 142.639 244.288C142.915 245.367 161.065 257.582 163.302 259.015C165.539 260.448 170.84 252.191 173.352 254.702C175.865 257.213 173.352 265.825 168.327 265.839C163.302 265.852 148.788 257.65 148.788 257.65L137.359 249.092" fill="#92E3A9"/>
<path opacity="0.5" d="M135.101 237.464C135.101 237.464 140.126 226.696 140.688 229.207C141.25 231.719 139.289 240.33 139.289 240.33C139.289 240.33 144.59 237.819 144.038 239.976C143.487 242.132 142.363 243.21 142.639 244.288C142.915 245.367 161.065 257.582 163.302 259.015C165.539 260.448 170.84 252.191 173.352 254.702C175.865 257.213 173.352 265.825 168.327 265.839C163.302 265.852 148.788 257.65 148.788 257.65L137.402 249.12" fill="white"/>
<path d="M104.96 280.947C104.96 280.947 137.593 258.674 132.292 266.93C126.991 275.187 109.424 284.55 104.96 280.947Z" fill="#92E3A9"/>
<path opacity="0.5" d="M104.96 280.947C104.96 280.947 137.593 258.674 132.292 266.93C126.991 275.187 109.424 284.55 104.96 280.947Z" fill="white"/>
<path d="M94.857 186.844C94.857 186.844 95.0902 192.576 95.8005 198.609C96.5109 204.641 96.267 204.641 100.72 211.874C105.172 219.108 109.858 225.154 110.558 223.953" stroke="#263238" stroke-width="1.06068" stroke-miterlimit="10" stroke-linecap="round"/>
<path d="M110.791 221.838C110.791 221.838 111.258 211.274 109.625 204.341C107.993 197.408 105.639 194.978 105.639 193.422C105.56 191.801 105.404 190.188 105.172 188.591" stroke="#263238" stroke-width="1.06068" stroke-miterlimit="10" stroke-linecap="round"/>
<path d="M94.857 195.593C92.9843 197.763 91.6743 200.621 91.104 203.781C90.4043 208.599 89.7046 214.331 89.7046 214.331L96.9667 233.042C97.599 229.784 98.5427 226.639 99.7762 223.68C100.387 222.219 101.178 220.897 102.119 219.763" stroke="#263238" stroke-width="1.06068" stroke-miterlimit="10" stroke-linecap="round"/>
<path d="M112.435 216.706C112.947 216.541 113.481 216.509 114.003 216.612C114.525 216.715 115.027 216.951 115.477 217.307C117.354 218.521 121.107 224.854 121.107 224.854C121.107 224.854 118.531 209.159 114.078 201.025C109.625 192.89 106.572 193.477 106.572 193.477" stroke="#263238" stroke-width="1.06068" stroke-miterlimit="10" stroke-linecap="round"/>
<path d="M88.9942 207.357L66.4974 218.494C66.4974 218.494 58.3023 276.115 55.249 291.497C52.1957 306.878 47.0538 350.333 47.0538 350.333L53.1392 351.834L55.2596 344.001" stroke="#263238" stroke-linecap="round" stroke-linejoin="round"/>
<path d="M56.4258 339.497C56.4258 339.497 57.8252 336.767 61.5782 321.754C65.3312 306.741 75.3605 269.892 77.0461 262.618C78.7318 255.343 80.0888 250.553 80.0888 250.553" stroke="#263238" stroke-width="1.06068" stroke-miterlimit="10" stroke-linecap="round"/>
<path d="M76.1025 241.695C76.1025 241.695 95.0796 285.369 96.7229 287.252C98.3661 289.135 96.0232 294.185 95.5461 296.901" stroke="#263238" stroke-width="1.06068" stroke-miterlimit="10" stroke-linecap="round"/>
<path d="M93.447 302.388L87.3616 318.684C87.3616 318.684 91.3478 326.531 108.215 326.531C118.253 326.571 128.147 323.46 137.041 317.469C137.041 317.469 133.055 290.323 133.288 285.492C133.521 280.66 133.999 267.995 133.999 267.995C133.999 267.995 138.239 259.806 137.741 253.515C137.243 247.223 135.165 239.935 135.165 238.734C135.165 237.533 134.698 224.554 134.698 224.554" stroke="#263238" stroke-width="1.06068" stroke-miterlimit="10" stroke-linecap="round"/>
<path d="M108.183 275.57L124.976 262.304" stroke="#263238" stroke-width="0.530341" stroke-miterlimit="10" stroke-linecap="round"/>
<path d="M117.025 271.407L126.153 264.583" stroke="#263238" stroke-width="0.530341" stroke-miterlimit="10" stroke-linecap="round"/>
<path d="M167.277 245.066L163.853 255.862" stroke="#263238" stroke-width="0.530341" stroke-miterlimit="10" stroke-linecap="round"/>
<path d="M165.91 249.788L162.676 253.965" stroke="#263238" stroke-width="0.530341" stroke-miterlimit="10" stroke-linecap="round"/>
<path d="M70.1868 288.098C70.1868 288.098 64.5891 296.437 60.7618 299.849" stroke="#263238" stroke-width="0.530341" stroke-miterlimit="10" stroke-linecap="round"/>
<path d="M66.9533 290.364C66.9533 290.364 57.2315 300.218 54.8779 302.497" stroke="#263238" stroke-width="0.530341" stroke-miterlimit="10" stroke-linecap="round"/>
<path d="M68.6814 220.213C71.612 225.548 74.2681 231.124 76.6327 236.905" stroke="#263238" stroke-width="0.530341" stroke-miterlimit="10" stroke-linecap="round"/>
<path d="M77.555 239.552L79.6117 244.097" stroke="#263238" stroke-width="0.530341" stroke-miterlimit="10" stroke-linecap="round"/>
<path d="M135.165 238.733L137.741 221.837" stroke="#263238" stroke-width="0.530341" stroke-miterlimit="10" stroke-linecap="round"/>
<path d="M136.108 239.935L140.084 232.701" stroke="#263238" stroke-width="0.530341" stroke-miterlimit="10" stroke-linecap="round"/>
<path d="M80.0888 250.498L68.8403 242.651" stroke="#263238" stroke-width="0.530341" stroke-miterlimit="10" stroke-linecap="round"/>
<path d="M110.325 225.454C110.325 225.454 114.566 236.373 115.954 244.166" stroke="#263238" stroke-width="0.530341" stroke-miterlimit="10" stroke-linecap="round"/>
<path d="M179.925 206.443C181.047 206.336 182.174 206.523 183.238 206.992C184.302 207.461 185.281 208.203 186.117 209.172" stroke="#263238" stroke-width="0.530341" stroke-miterlimit="10" stroke-linecap="round"/>
<path d="M51.1249 342.84L54.0298 344.232" stroke="#263238" stroke-width="0.530341" stroke-miterlimit="10" stroke-linecap="round"/>
<path d="M46.9797 350.879C47.0161 356.068 46.8037 361.255 46.3436 366.41C45.6438 372.757 45.8771 387.237 46.81 391.755C47.743 396.272 48.2201 397.214 49.153 394.484C50.086 391.755 52.906 375.787 52.906 375.787C52.906 375.787 53.3725 386.336 55.4822 385.436C57.592 384.535 56.4258 379.403 56.4258 374.872C56.4258 370.341 56.659 368.84 56.4258 365.223C56.1926 361.606 53.065 352.667 53.065 352.667" fill="white"/>
<path d="M46.9797 350.879C47.0161 356.068 46.8037 361.255 46.3436 366.41C45.6438 372.757 45.8771 387.237 46.81 391.755C47.743 396.272 48.2201 397.214 49.153 394.484C50.086 391.755 52.906 375.787 52.906 375.787C52.906 375.787 53.3725 386.336 55.4822 385.436C57.592 384.535 56.4258 379.403 56.4258 374.872C56.4258 370.341 56.659 368.84 56.4258 365.223C56.1926 361.606 53.065 352.667 53.065 352.667" stroke="#263238" stroke-miterlimit="10" stroke-linecap="round"/>
<path d="M182.66 196.548C182.554 193.879 182.554 191.205 182.66 188.536C182.851 186.025 182.077 182.272 182.268 178.983C182.459 175.694 184.993 174.479 184.601 170.221C184.208 165.963 183.434 165.458 184.017 164.461C184.601 163.465 188.258 164.953 188.491 167.71C188.699 170.547 188.699 173.403 188.491 176.24C188.301 176.99 189.658 181.699 188.884 183.746C188.44 184.855 188.112 186.034 187.908 187.254" stroke="#263238" stroke-width="0.880843" stroke-miterlimit="10" stroke-linecap="round"/>
<path d="M189.276 167.491C189.276 167.491 193.75 155.972 196.284 155.713C198.817 155.454 198.033 158.442 197.248 159.971C196.464 161.5 193.941 166.986 193.75 169.252C193.559 171.517 191.216 179.01 191.216 179.01" stroke="#263238" stroke-width="0.880843" stroke-miterlimit="10" stroke-linecap="round"/>
<path d="M193.782 169.252C193.782 169.252 200.599 174.506 199.082 178.805C197.566 183.105 196.739 184.824 195.573 184.265C194.539 183.585 193.615 182.658 192.849 181.535" stroke="#263238" stroke-width="0.880843" stroke-miterlimit="10" stroke-linecap="round"/>
<path d="M196.284 184.278C196.284 184.278 194.524 188.032 193.167 190.297C192.386 191.606 191.461 192.76 190.421 193.723L189.594 197.421" stroke="#263238" stroke-width="0.880843" stroke-miterlimit="10" stroke-linecap="round"/>
<path d="M114.544 202.526C114.544 202.526 130.712 202.226 132.822 205.542C134.931 208.858 160.482 239.034 163.567 241.75C166.652 244.466 167.32 245.066 167.32 245.066C167.32 245.066 179.968 208.217 179.968 206.443C179.968 204.668 182.088 196.493 182.088 196.493C182.088 196.493 186.074 197.094 187.018 197.094C187.961 197.094 190.527 201.024 190.527 201.024C190.527 201.024 187.018 219.422 187.018 221.496C187.018 223.571 180.455 252.272 177.402 261.075C174.349 269.878 170.14 268.609 163.344 265.893C156.548 263.177 138.038 249.611 138.038 249.611" stroke="#263238" stroke-width="1.06068" stroke-miterlimit="10" stroke-linecap="round"/>
<path d="M87.3616 318.683C87.3616 318.683 77.9791 348.9 75.4452 369.467C72.9114 390.035 73.9928 438.13 73.2613 443.275C72.5298 448.421 62.3733 472.7 62.3733 484.383C62.3733 496.066 56.9346 556.321 56.9346 556.321L60.5604 559.119C60.5604 559.119 73.2825 508.622 77.9791 495.588C82.6756 482.554 89.2275 451.682 91.0404 445.609C92.8533 439.536 105.565 390.949 106.286 384.876C107.007 378.802 111.364 363.858 111.364 363.858C111.364 363.858 120.799 438.13 122.612 453.552C124.425 468.974 137.126 552.582 137.126 552.582C137.96 552.844 138.812 553 139.67 553.046C140.731 553.046 141.123 550.712 141.123 550.712C141.123 550.712 146.201 491.384 144.749 475.498C143.296 459.612 138.95 440.013 138.95 434.391C138.95 428.768 145.48 380.208 145.48 363.421C145.48 346.634 136.999 317.496 136.999 317.496C136.999 317.496 106.901 337.04 87.3616 318.683Z" fill="#263238"/>
<path d="M138.812 437.475C138.812 437.475 135.578 455.299 131.157 464.771" stroke="white" stroke-width="0.530341" stroke-miterlimit="10" stroke-linecap="round"/>
<path d="M137.932 455.681C137.932 455.681 135.281 468.565 129.98 474.638" stroke="white" stroke-width="0.530341" stroke-miterlimit="10" stroke-linecap="round"/>
<path d="M75.2014 449.99C75.2014 449.99 77.2581 465.535 79.6117 471.977" stroke="white" stroke-width="0.530341" stroke-miterlimit="10" stroke-linecap="round"/>
<path d="M74.6077 459.093C74.6077 459.093 76.3782 470.094 79.6117 476.536" stroke="white" stroke-width="0.530341" stroke-miterlimit="10" stroke-linecap="round"/>
<path d="M112.307 363.926L124.086 351.411" stroke="white" stroke-width="0.530341" stroke-miterlimit="10" stroke-linecap="round"/>
<path d="M117.905 358.617L131.751 350.647" stroke="white" stroke-width="0.530341" stroke-miterlimit="10" stroke-linecap="round"/>
<path d="M87.563 337.381C87.563 337.381 96.7017 344.956 102.003 351.411" stroke="white" stroke-width="0.530341" stroke-miterlimit="10" stroke-linecap="round"/>
<path d="M57.3163 556.281C57.3163 556.281 43.5341 571.293 43.5341 578.745C43.5341 586.197 48.9728 585.747 54.7825 578.745C60.5923 571.744 60.8891 557.318 60.8891 557.318L57.3163 556.281Z" fill="white" stroke="#263238" stroke-width="1.06068" stroke-miterlimit="10" stroke-linecap="round"/>
<path d="M137.126 552.582C137.126 552.582 141.844 567.526 146.933 574.077C152.021 580.628 154.916 582.948 154.916 575.933C154.916 568.918 151.65 560.989 141.133 550.712C141.123 550.712 144.028 553.51 137.126 552.582Z" fill="white" stroke="#263238" stroke-width="1.06068" stroke-miterlimit="10" stroke-linecap="round"/>
<path d="M88.443 138.926C87.4994 138.476 86.6088 137.93 85.6865 137.425C84.7641 136.92 83.0785 136.647 82.4424 140.373C81.4988 145.832 88.0613 150.336 85.9515 154.853C84.639 157.601 82.6664 159.724 80.3326 160.899C79.9527 161.067 79.5569 161.168 79.1559 161.2C77.2793 161.5 74.2366 161.2 75.1696 165.417C76.1025 169.634 79.1558 173.264 81.0323 173.264H82.9089C82.9089 173.264 85.0292 181.453 92.9805 185.93C100.932 190.406 106.339 190.161 108.215 184.428C110.092 178.696 111.502 173.865 111.502 166.318C111.502 158.77 109.381 146.105 109.381 146.105C109.381 146.105 107.505 149.435 100.243 145.204C95.4401 142.406 90.945 140.141 88.443 138.926Z" fill="white"/>
<g style="mix-blend-mode:multiply" opacity="0.5">
<path d="M100.253 145.204C100.253 145.204 89.0472 144.399 87.3722 144.754C85.6971 145.109 87.6478 151.578 87.0965 158.047C86.5452 164.516 86.8103 174.943 89.0472 178.178C91.6869 181.513 94.484 184.635 97.4226 187.527C97.4226 187.527 88.8246 185.739 85.6971 181.057C82.5696 176.376 82.0713 173.865 82.0713 173.865C82.0713 173.865 74.8091 168.406 74.2472 164.161C73.6853 159.917 78.4879 162.169 80.7885 160.067C82.0819 158.92 87.4358 156.764 86.0893 151.018C84.7429 145.272 82.5696 144.194 82.4848 140.346C82.4211 137.616 84.287 136.824 85.432 136.579C85.9482 136.467 86.4787 136.567 86.9481 136.865L100.253 145.204Z" fill="#92E3A9"/>
</g>
<path d="M88.443 138.926C87.4994 138.476 86.6088 137.93 85.6865 137.425C84.7641 136.92 83.0785 136.647 82.4424 140.373C81.4988 145.832 88.0613 150.336 85.9515 154.853C84.639 157.601 82.6664 159.724 80.3326 160.899C79.9527 161.067 79.5569 161.168 79.1559 161.2C77.2793 161.5 74.2366 161.2 75.1696 165.417C76.1025 169.634 79.1558 173.264 81.0323 173.264H82.9089C82.9089 173.264 85.0292 181.453 92.9805 185.93C100.932 190.406 106.339 190.161 108.215 184.428C110.092 178.696 111.502 173.865 111.502 166.318C111.502 158.77 109.381 146.105 109.381 146.105C109.381 146.105 107.505 149.435 100.243 145.204C95.4401 142.406 90.945 140.141 88.443 138.926Z" stroke="#263238" stroke-width="1.06068" stroke-miterlimit="10" stroke-linecap="round"/>
<path d="M96.7229 156.805C96.8713 157.951 96.6275 158.961 96.1716 159.057C95.7157 159.152 95.2493 158.292 95.1114 157.146C94.9736 156 95.2174 154.976 95.6627 154.881C96.108 154.785 96.5745 155.713 96.7229 156.805Z" fill="#263238"/>
<path d="M106.423 154.717C106.561 155.863 106.317 156.873 105.872 156.969C105.427 157.064 104.95 156.204 104.812 155.058C104.674 153.911 104.907 152.901 105.353 152.806C105.798 152.71 106.275 153.57 106.423 154.717Z" fill="#263238"/>
<path d="M91.104 151.237C91.6972 150.101 92.5018 149.175 93.4445 148.544C94.3871 147.912 95.4377 147.594 96.5003 147.62" stroke="#263238" stroke-width="1.06068" stroke-miterlimit="10" stroke-linecap="round"/>
<path d="M103.762 148.521C104.663 148.115 105.638 148.072 106.558 148.396C107.478 148.72 108.3 149.397 108.915 150.336" stroke="#263238" stroke-width="1.06068" stroke-miterlimit="10" stroke-linecap="round"/>
<path d="M102.83 153.652C102.7 155.559 102.7 157.477 102.83 159.384C103.063 161.8 104.462 162.401 103.996 164.216C103.529 166.031 101.653 166.017 101.653 166.017" stroke="#263238" stroke-width="1.06068" stroke-miterlimit="10" stroke-linecap="round"/>
<path d="M99.3097 173.264C98.5068 173.508 97.6723 173.526 96.8635 173.317C96.0547 173.107 95.2907 172.675 94.6237 172.05" stroke="#263238" stroke-width="1.06068" stroke-miterlimit="10" stroke-linecap="round"/>
</svg>
