<svg width="24" height="24" viewBox="0 0 24 24" fill="none" xmlns="http://www.w3.org/2000/svg">
<path fill-rule="evenodd" clip-rule="evenodd" d="M1 12C1 5.92487 5.92487 1 12 1C18.0751 1 23 5.92487 23 12C23 18.0751 18.0751 23 12 23C5.92487 23 1 18.0751 1 12ZM8.20711 9.79289C7.81658 9.40237 7.18342 9.40237 6.79289 9.79289C6.40237 10.1834 6.40237 10.8166 6.79289 11.2071L11.2929 15.7071C11.6834 16.0976 12.3166 16.0976 12.7071 15.7071L17.2071 11.2071C17.5976 10.8166 17.5976 10.1834 17.2071 9.79289C16.8166 9.40237 16.1834 9.40237 15.7929 9.79289L12 13.5858L8.20711 9.79289Z" fill="#06396C"/>
</svg>
