<?xml version="1.0" encoding="UTF-8" ?>
<!DOCTYPE svg PUBLIC "-//W3C//DTD SVG 1.1//EN" "http://www.w3.org/Graphics/SVG/1.1/DTD/svg11.dtd">
<svg width="102pt" height="326pt" viewBox="0 0 102 326" version="1.1" xmlns="http://www.w3.org/2000/svg">
<g id="#5bdb93ff">
<path fill="#5bdb93" opacity="1.00" d=" M 51.01 0.00 L 51.94 0.00 C 51.98 3.87 52.18 7.75 51.77 11.61 C 50.25 7.95 51.25 3.85 51.01 0.00 Z" />
<path fill="#5bdb93" opacity="1.00" d=" M 51.11 19.56 C 52.65 20.94 51.78 23.24 52.04 25.03 C 51.75 27.11 52.73 29.70 51.12 31.38 C 50.92 27.45 50.93 23.50 51.11 19.56 Z" />
<path fill="#5bdb93" opacity="1.00" d=" M 51.12 51.32 C 51.40 47.48 49.93 42.95 51.90 39.54 C 51.57 43.37 53.09 47.93 51.12 51.32 Z" />
<path fill="#5bdb93" opacity="1.00" d=" M 51.10 59.51 C 53.10 62.77 51.52 67.16 51.97 70.87 L 51.03 70.89 C 51.01 67.10 50.90 63.30 51.10 59.51 Z" />
<path fill="#5bdb93" opacity="1.00" d=" M 51.15 91.45 C 51.37 87.54 49.94 82.97 51.89 79.47 C 51.67 83.41 52.95 87.80 51.15 91.45 Z" />
<path fill="#5bdb93" opacity="1.00" d=" M 51.01 99.94 L 51.99 99.87 C 51.90 103.20 52.28 106.57 51.79 109.87 C 51.59 109.82 51.19 109.73 51.00 109.68 C 50.93 106.43 51.02 103.19 51.01 99.94 Z" />
<path fill="#5bdb93" opacity="1.00" d=" M 9.71 131.64 C 18.34 119.75 32.31 111.86 47.00 110.90 C 59.17 109.91 71.65 113.38 81.43 120.72 C 93.16 129.29 100.80 143.06 102.00 157.52 L 102.00 166.16 C 100.81 179.05 94.67 191.42 84.92 199.95 C 73.44 210.24 57.12 214.85 41.97 211.99 C 27.09 209.47 13.67 199.84 6.36 186.66 C 2.82 180.42 0.78 173.42 0.00 166.31 L 0.00 157.60 C 0.82 148.28 4.14 139.17 9.71 131.64 M 42.51 115.64 C 27.41 118.32 14.05 128.93 7.98 143.00 C 2.16 156.04 2.86 171.74 9.81 184.22 C 16.69 196.92 29.72 206.06 44.03 208.11 C 57.50 210.22 71.77 206.00 81.96 196.95 C 92.21 188.06 98.25 174.55 97.95 160.98 C 97.80 147.56 91.47 134.42 81.16 125.86 C 70.64 116.93 56.07 113.07 42.51 115.64 Z" />
<path fill="#5bdb93" opacity="1.00" d=" M 50.13 135.08 C 50.58 135.09 51.47 135.11 51.92 135.11 C 56.29 140.18 60.80 145.28 64.47 150.85 C 63.42 155.62 61.87 160.26 60.60 164.96 C 60.24 166.09 59.61 168.24 57.97 167.37 C 55.56 167.29 56.79 164.28 57.08 162.94 C 58.13 159.14 59.25 155.36 60.36 151.58 C 57.97 148.47 55.46 145.44 52.97 142.41 C 53.01 145.64 52.69 148.90 53.12 152.12 C 53.90 153.84 55.63 155.64 54.52 157.64 C 53.32 160.58 48.61 160.57 47.47 157.59 C 46.37 155.55 48.19 153.72 48.93 151.94 C 49.27 148.77 49.00 145.57 49.04 142.39 C 46.55 145.45 44.01 148.47 41.63 151.61 C 43.44 157.50 45.01 163.46 46.75 169.37 C 51.02 169.50 55.33 169.08 59.58 169.57 C 61.34 170.75 60.32 173.34 60.71 175.11 C 64.47 175.13 68.22 175.14 71.97 175.08 C 72.08 165.69 72.17 156.29 71.96 146.91 C 69.30 145.27 64.42 148.09 62.59 145.00 C 62.70 144.49 62.92 143.47 63.03 142.96 C 65.96 142.25 69.03 142.48 72.02 142.67 C 74.61 142.80 76.24 145.51 75.99 147.93 C 76.00 156.65 76.05 165.38 75.96 174.11 C 76.19 176.81 73.75 179.24 71.05 178.97 C 65.01 179.09 58.98 178.94 52.94 179.01 C 52.94 180.90 52.95 182.79 52.95 184.69 C 56.30 184.74 59.67 184.50 63.01 184.82 C 65.14 185.08 64.72 188.64 62.65 188.49 C 54.90 188.63 47.14 188.62 39.39 188.50 C 37.28 188.71 36.88 185.09 38.98 184.83 C 42.32 184.49 45.69 184.74 49.05 184.69 C 49.05 182.79 49.06 180.90 49.06 179.01 C 43.03 178.94 36.99 179.09 30.96 178.97 C 28.24 179.25 25.82 176.80 26.04 174.09 C 25.94 165.37 26.00 156.64 26.02 147.91 C 25.84 145.77 26.93 143.43 29.11 142.79 C 31.72 142.40 34.37 142.46 36.99 142.59 C 38.98 142.12 40.27 144.42 38.98 145.94 C 36.14 146.93 33.02 146.30 30.06 146.42 C 29.84 155.97 29.91 165.53 30.02 175.08 C 33.78 175.13 37.53 175.13 41.29 175.11 C 41.35 173.04 41.17 170.84 42.50 169.09 C 41.05 162.98 38.91 157.04 37.54 150.91 C 41.16 145.27 45.74 140.16 50.13 135.08 M 45.01 173.29 C 45.11 173.70 45.32 174.50 45.42 174.90 C 49.11 175.31 52.86 175.26 56.55 174.93 C 56.67 174.53 56.90 173.71 57.01 173.31 C 53.01 173.22 49.01 173.22 45.01 173.29 Z" />
<path fill="#5bdb93" opacity="1.00" d=" M 51.00 219.74 L 51.99 219.75 C 51.66 223.60 52.85 227.76 51.18 231.37 C 50.84 227.50 51.05 223.62 51.00 219.74 Z" />
<path fill="#5bdb93" opacity="1.00" d=" M 51.00 239.76 L 51.99 239.68 C 51.65 243.53 52.87 247.71 51.17 251.32 C 50.84 247.47 51.04 243.61 51.00 239.76 Z" />
<path fill="#5bdb93" opacity="1.00" d=" M 51.01 270.55 C 51.48 266.85 49.94 262.51 51.89 259.22 C 52.10 262.96 51.97 266.71 52.00 270.46 L 51.01 270.55 Z" />
<path fill="#5bdb93" opacity="1.00" d=" M 51.00 279.69 L 51.99 279.61 C 51.59 283.38 52.95 287.59 51.14 291.06 C 50.87 287.27 51.03 283.48 51.00 279.69 Z" />
<path fill="#5bdb93" opacity="1.00" d=" M 51.01 299.65 L 52.00 299.59 C 51.97 303.36 52.10 307.14 51.89 310.92 C 49.96 307.63 51.47 303.34 51.01 299.65 Z" />
<path fill="#5bdb93" opacity="1.00" d=" M 51.33 319.44 C 52.61 320.25 52.63 324.17 51.33 324.98 C 50.59 323.31 50.60 321.10 51.33 319.44 Z" />
</g>
<g id="#1f1f1fff">
<path fill="#1f1f1f" opacity="1.00" d=" M 42.51 115.64 C 56.07 113.07 70.64 116.93 81.16 125.86 C 91.47 134.42 97.80 147.56 97.95 160.98 C 98.25 174.55 92.21 188.06 81.96 196.95 C 71.77 206.00 57.50 210.22 44.03 208.11 C 29.72 206.06 16.69 196.92 9.81 184.22 C 2.86 171.74 2.16 156.04 7.98 143.00 C 14.05 128.93 27.41 118.32 42.51 115.64 M 50.13 135.08 C 45.74 140.16 41.16 145.27 37.54 150.91 C 38.91 157.04 41.05 162.98 42.50 169.09 C 41.17 170.84 41.35 173.04 41.29 175.11 C 37.53 175.13 33.78 175.13 30.02 175.08 C 29.91 165.53 29.84 155.97 30.06 146.42 C 33.02 146.30 36.14 146.93 38.98 145.94 C 40.27 144.42 38.98 142.12 36.99 142.59 C 34.37 142.46 31.72 142.40 29.11 142.79 C 26.93 143.43 25.84 145.77 26.02 147.91 C 26.00 156.64 25.94 165.37 26.04 174.09 C 25.82 176.80 28.24 179.25 30.96 178.97 C 36.99 179.09 43.03 178.94 49.06 179.01 C 49.06 180.90 49.05 182.79 49.05 184.69 C 45.69 184.74 42.32 184.49 38.98 184.83 C 36.88 185.09 37.28 188.71 39.39 188.50 C 47.14 188.62 54.90 188.63 62.65 188.49 C 64.72 188.64 65.14 185.08 63.01 184.82 C 59.67 184.50 56.30 184.74 52.95 184.69 C 52.95 182.79 52.94 180.90 52.94 179.01 C 58.98 178.94 65.01 179.09 71.05 178.97 C 73.75 179.24 76.19 176.81 75.96 174.11 C 76.05 165.38 76.00 156.65 75.99 147.93 C 76.24 145.51 74.61 142.80 72.02 142.67 C 69.03 142.48 65.96 142.25 63.03 142.96 C 62.92 143.47 62.70 144.49 62.59 145.00 C 64.42 148.09 69.30 145.27 71.96 146.91 C 72.17 156.29 72.08 165.69 71.97 175.08 C 68.22 175.14 64.47 175.13 60.71 175.11 C 60.32 173.34 61.34 170.75 59.58 169.57 C 55.33 169.08 51.02 169.50 46.75 169.37 C 45.01 163.46 43.44 157.50 41.63 151.61 C 44.01 148.47 46.55 145.45 49.04 142.39 C 49.00 145.57 49.27 148.77 48.93 151.94 C 48.19 153.72 46.37 155.55 47.47 157.59 C 48.61 160.57 53.32 160.58 54.52 157.64 C 55.63 155.64 53.90 153.84 53.12 152.12 C 52.69 148.90 53.01 145.64 52.97 142.41 C 55.46 145.44 57.97 148.47 60.36 151.58 C 59.25 155.36 58.13 159.14 57.08 162.94 C 56.79 164.28 55.56 167.29 57.97 167.37 C 59.61 168.24 60.24 166.09 60.60 164.96 C 61.87 160.26 63.42 155.62 64.47 150.85 C 60.80 145.28 56.29 140.18 51.92 135.11 C 51.47 135.11 50.58 135.09 50.13 135.08 Z" />
<path fill="#1f1f1f" opacity="1.00" d=" M 45.01 173.29 C 49.01 173.22 53.01 173.22 57.01 173.31 C 56.90 173.71 56.67 174.53 56.55 174.93 C 52.86 175.26 49.11 175.31 45.42 174.90 C 45.32 174.50 45.11 173.70 45.01 173.29 Z" />
</g>
</svg>
