<svg width="815" height="52" viewBox="0 0 815 52" fill="none" xmlns="http://www.w3.org/2000/svg">
<path d="M0.0192375 26L26 51.9808L51.9808 26L26 0.0192375L0.0192375 26ZM814.981 25.9999L789 0.0191708L763.019 25.9999L789 51.9807L814.981 25.9999ZM26 30.5L35.0833 30.5L35.0833 21.5L26 21.5L26 30.5ZM53.25 30.5L71.4167 30.5L71.4167 21.5L53.25 21.5L53.25 30.5ZM89.5833 30.5L107.75 30.5L107.75 21.5L89.5833 21.5L89.5833 30.5ZM125.917 30.5L144.083 30.5L144.083 21.5L125.917 21.5L125.917 30.5ZM162.25 30.5L180.417 30.5L180.417 21.5L162.25 21.5L162.25 30.5ZM198.583 30.5L216.75 30.5L216.75 21.5L198.583 21.5L198.583 30.5ZM234.917 30.5L253.083 30.5L253.083 21.5L234.917 21.5L234.917 30.5ZM271.25 30.5L289.417 30.5L289.417 21.5L271.25 21.5L271.25 30.5ZM307.583 30.5L325.75 30.5L325.75 21.5L307.583 21.5L307.583 30.5ZM343.917 30.5L362.083 30.5L362.083 21.5L343.917 21.5L343.917 30.5ZM380.25 30.5L398.417 30.5L398.417 21.5L380.25 21.5L380.25 30.5ZM416.583 30.5L434.75 30.5L434.75 21.5L416.583 21.5L416.583 30.5ZM452.917 30.5L471.083 30.5L471.083 21.5L452.917 21.5L452.917 30.5ZM489.25 30.5L507.417 30.5L507.417 21.5L489.25 21.5L489.25 30.5ZM525.583 30.5L543.75 30.5L543.75 21.5L525.583 21.5L525.583 30.5ZM561.917 30.5L580.083 30.5L580.083 21.5L561.917 21.5L561.917 30.5ZM598.25 30.4999L616.417 30.4999L616.417 21.4999L598.25 21.4999L598.25 30.4999ZM634.583 30.4999L652.75 30.4999L652.75 21.4999L634.583 21.4999L634.583 30.4999ZM670.917 30.4999L689.083 30.4999L689.083 21.4999L670.917 21.4999L670.917 30.4999ZM707.25 30.4999L725.417 30.4999L725.417 21.4999L707.25 21.4999L707.25 30.4999ZM743.583 30.4999L761.75 30.4999L761.75 21.4999L743.583 21.4999L743.583 30.4999ZM779.917 30.4999L789 30.4999L789 21.4999L779.917 21.4999L779.917 30.4999Z" fill="#06396C"/>
</svg>
