<svg width="166" height="166" viewBox="0 0 166 166" fill="none" xmlns="http://www.w3.org/2000/svg">
<path opacity="0.96" d="M77.3258 0H88.3573C107.281 1.328 125.707 9.14509 139.561 22.1384C154.893 36.2484 164.4 56.3042 165.985 77.0693L166 72.9193V93.126L165.985 88.9458C164.461 108.67 155.844 127.775 141.779 141.719C127.82 155.814 108.7 164.461 88.9458 165.985L93.0355 166H77.4164C57.1945 164.536 37.5915 155.587 23.4965 140.979C9.76382 127.05 1.47891 108.126 0 88.6591V77.6427C1.40345 57.3304 10.3524 37.6367 25.0207 23.4815C38.9496 9.76382 57.8736 1.47891 77.3258 0ZM72.9645 2.23345C51.8976 4.78382 32.0833 16.0115 19.0447 32.7473C5.28182 50.0565 -0.935636 73.1909 2.52018 95.0576C5.52327 115.777 17.0225 135.079 33.7131 147.695C50.8715 160.929 73.5078 166.83 94.9218 163.495C115.295 160.567 134.309 149.475 146.955 133.268C160.688 115.974 166.905 92.8845 163.495 71.048C160.507 50.2829 149.023 30.9515 132.302 18.3053C115.642 5.46291 93.8353 -0.482909 72.9645 2.23345Z" fill="#06396C"/>
<path opacity="0.96" d="M54.5838 56.1834C59.1413 49.8302 69.4182 49.3925 74.4434 55.3987C80.6307 62.084 78.7745 72.9645 72.3609 78.8349C78.0351 82.1247 82.0945 87.482 84.3883 93.5787C86.6671 89.2024 89.972 85.5051 94.0918 82.8189C87.6782 76.9033 86.8482 65.0569 94.7105 60.0165C101.064 55.5798 110.556 59.6694 112.261 67.064C114.117 72.708 111.643 78.6538 107.689 82.7434C111.054 85.0373 113.906 87.9498 116.306 91.2245C118.011 89.7909 119.746 88.3874 121.497 87.0142C117.015 82.7585 115.4 74.8509 119.897 70.052C123.942 65.4493 132.151 66.2491 135.26 71.5158C138.369 76.5411 136.467 82.9849 132.589 86.9991C138.263 90.7265 142.368 97.1854 141.915 104.142C141.87 108.036 138.912 111.416 135.199 112.367C128.907 114.163 122.161 113.559 115.989 111.567C109.017 115.642 100.551 115.717 92.8091 114.389C89.0213 113.755 85.7013 111.537 83.6942 108.292C81.0683 112.05 76.7674 114.102 72.3005 114.631C64.5136 115.611 56.2287 115.521 49.0907 111.884C43.1902 113.604 36.7765 114.072 30.8156 112.367C27.1183 111.416 24.1303 108.051 24.1303 104.142C23.6172 97.1854 27.7673 90.6964 33.4565 86.984C29.2462 82.8038 27.4956 75.5451 31.4042 70.6104C35.1014 65.7813 43.2505 65.8567 46.7818 70.8367C50.5847 75.862 48.6078 83.0302 44.4578 87.2254C45.4085 87.7989 46.3442 88.3874 47.2798 88.9911C49.8151 84.8713 53.1954 81.34 57.3303 78.8198C51.2034 73.1607 49.1511 63.0045 54.5838 56.1834ZM60.7409 56.1382C52.8182 60.3787 54.2216 73.2965 62.1142 76.7976C69.8558 79.2424 75.6205 70.1878 74.0511 63.3667C73.2814 57.4209 66.2189 52.9389 60.7409 56.1382ZM98.3776 62.1444C89.8965 65.2229 91.1642 78.9405 99.4793 81.34C105.817 82.4718 110.179 74.9867 109.153 69.4031C108.609 64.4382 103.312 60.3334 98.3776 62.1444ZM35.2222 71.2442C29.9253 74.9113 32.0078 84.3129 38.0442 85.8824C43.4316 86.652 46.7969 80.0724 45.6349 75.4545C44.7747 71.0027 38.9345 68.1656 35.2222 71.2442ZM123.021 71.38C118.117 75.0773 119.958 83.6338 125.436 85.7918C131.698 87.2104 135.788 78.6689 132.951 73.7342C131.2 70.1576 126.16 68.6334 123.021 71.38ZM50.3131 91.8131C53.5123 97.0949 55.112 103.448 52.7125 109.394C60.3636 111.567 68.7994 112.11 76.3751 109.394C81.8983 107.251 82.3662 100.219 80.6307 95.3594C78.352 87.98 71.7874 80.2836 63.3063 81.4758C57.2851 81.8229 53.2256 87.0896 50.3131 91.8131ZM86.3954 99.6302C85.2334 103.871 87.0293 109.243 91.6622 110.36C98.6644 112.337 106.497 112.171 113.182 109.092C111.431 104.444 112.367 99.6302 113.559 94.9973C111.914 89.2024 105.757 84.2827 99.4943 85.2938C92.3413 85.9578 87.7838 93.1562 86.3954 99.6302ZM31.706 92.2054C27.8578 96.1744 24.734 103.675 29.1405 108.262C34.2865 111.612 40.8058 110.254 46.5554 109.967C43.5976 104.203 43.8391 97.5929 45.9216 91.5716C41.8622 88.0856 35.3127 87.98 31.706 92.2054ZM117.754 94.1673C119.369 99.0416 119.716 104.263 118.011 109.183C123.564 110.631 129.616 111.205 135.109 109.288C139.561 107.704 139.621 102.015 138.127 98.3022C136.377 93.5485 132.211 88.5384 126.658 89.0062C122.855 88.6742 120.244 91.8433 117.754 94.1673ZM50.1169 107.568C51.7467 103.312 50.6753 98.8907 48.7285 94.9369C48.1702 99.2076 47.808 103.705 50.1169 107.568Z" fill="#06396C"/>
</svg>
