<svg width="163" height="163" viewBox="0 0 163 163" fill="none" xmlns="http://www.w3.org/2000/svg">
<path d="M76.8471 0H85.7528C104.35 1.00764 122.517 8.49082 136.268 21.0566C152.02 35.208 161.785 55.6867 162.985 76.8323L163 73.3945V89.6204L162.985 86.1677C161.829 105.98 153.25 125.199 139.172 139.172C125.199 153.25 105.98 161.829 86.1825 162.985L89.5315 163H77.1138C56.5462 161.889 36.5713 152.716 22.4199 137.735C9.14282 123.91 1.17064 105.268 0 86.1529V77.2472C1.06691 56.9611 9.95782 37.2085 24.5834 23.0867C38.4828 9.40955 57.4056 1.17064 76.8471 0ZM71.6755 2.16345C50.6041 4.68255 30.8218 16.1074 18.0041 33.0149C4.96409 49.8928 -0.829818 72.1646 2.43018 93.2508C5.40864 113.981 17.0557 133.245 33.904 145.663C51.0931 158.569 73.6464 164.022 94.8215 160.318C115.271 156.954 134.119 145.144 146.226 128.34C158.747 111.24 163.978 89.0128 160.303 68.134C156.984 48.0109 145.5 29.4437 129.111 17.3373C112.855 5.14191 91.8283 -0.414909 71.6755 2.16345Z" fill="#06396C"/>
<path d="M67.3338 43.7136C73.839 36.7935 85.9306 37.1047 92.1246 44.2619C100.63 53.1232 98.3631 68.4748 89.0721 75.9135C100.63 81.9001 108.01 95.2216 106.913 108.188C106.513 114.322 102.32 119.864 96.5552 121.983C88.0348 125.243 78.5808 124.902 69.6454 123.954C62.2363 123.109 54.1753 118.901 52.4712 111.033C49.6409 97.2369 57.5093 82.3002 69.8677 75.8542C60.2655 68.3711 58.2502 52.3823 67.3338 43.7136ZM75.8691 44.4545C62.755 48.6925 64.4442 70.2826 77.2916 73.5278C86.7901 75.4245 93.2952 64.4294 92.0505 56.1164C91.4726 48.4851 83.5301 41.7428 75.8691 44.4545ZM73.0832 80.2701C62.7105 84.9674 56.1312 96.9109 57.2278 108.173C57.7168 113.833 62.9772 117.508 68.2081 118.353C76.0321 119.746 84.2117 119.805 91.9912 118.027C96.7775 117.004 101.164 113.3 101.668 108.217C102.72 98.289 97.6221 88.1237 89.6055 82.3446C84.9378 78.8327 78.4771 78.5956 73.0832 80.2701Z" fill="#06396C"/>
</svg>
