<svg width="409" height="52" viewBox="0 0 409 52" fill="none" xmlns="http://www.w3.org/2000/svg">
<path d="M0.0192379 26L26 51.9808L51.9808 26L26 0.0192379L0.0192379 26ZM408.981 26L383 0.0192691L357.019 26L383 51.9808L408.981 26ZM26 30.5L34.925 30.5L34.925 21.5L26 21.5L26 30.5ZM52.775 30.5L70.625 30.5L70.625 21.5L52.775 21.5L52.775 30.5ZM88.475 30.5L106.325 30.5L106.325 21.5L88.475 21.5L88.475 30.5ZM124.175 30.5L142.025 30.5L142.025 21.5L124.175 21.5L124.175 30.5ZM159.875 30.5L177.725 30.5L177.725 21.5L159.875 21.5L159.875 30.5ZM195.575 30.5L213.425 30.5L213.425 21.5L195.575 21.5L195.575 30.5ZM231.275 30.5L249.125 30.5L249.125 21.5L231.275 21.5L231.275 30.5ZM266.975 30.5L284.825 30.5L284.825 21.5L266.975 21.5L266.975 30.5ZM302.675 30.5L320.525 30.5L320.525 21.5L302.675 21.5L302.675 30.5ZM338.375 30.5L356.225 30.5L356.225 21.5L338.375 21.5L338.375 30.5ZM374.075 30.5L383 30.5L383 21.5L374.075 21.5L374.075 30.5Z" fill="#06396C"/>
</svg>
